<?xml version="1.0" encoding="utf-8"?>
<!-- Generator: Adobe Illustrator 22.0.1, SVG Export Plug-In . SVG Version: 6.00 Build 0)  -->
<svg version="1.1" id="Layer_1" xmlns="http://www.w3.org/2000/svg" xmlns:xlink="http://www.w3.org/1999/xlink" x="0px" y="0px"
	 viewBox="0 0 461.5 197.2" style="enable-background:new 0 0 461.5 197.2;" xml:space="preserve">
<style type="text/css">
	.st0{opacity:0.1;fill:#E6E6E6;stroke:#000000;stroke-width:0.5;stroke-miterlimit:10;}
	.st1{opacity:0.7995;fill:#F6911E;}
	.st2{fill:none;stroke:#000000;stroke-width:0.6;stroke-linecap:round;stroke-linejoin:round;stroke-miterlimit:10;}
	.st3{fill:none;stroke:#000000;stroke-width:0.35;stroke-linecap:round;stroke-linejoin:round;stroke-miterlimit:10;}
	.st4{fill:none;stroke:#000000;stroke-width:0.35;stroke-miterlimit:10;}
	.st5{font-family:'HelveticaNeue';}
	.st6{font-size:7px;}
	.st7{fill:none;stroke:#000000;stroke-width:0.5;stroke-linecap:round;stroke-linejoin:round;stroke-miterlimit:10;}
	.st8{fill:#2A3384;}
	.st9{font-family:'TimesNewRomanPSMT';}
	.st10{font-size:11px;}
	.st11{fill:none;stroke:#000000;stroke-width:0.5;stroke-miterlimit:10;stroke-dasharray:4,1;}
	.st12{fill:#F7931E;}
	.st13{fill:#29ABE2;}
	.st14{fill:#C1272D;}
	.st15{font-family:'LucidaGrande';}
	.st16{font-size:9px;}
</style>
<path class="st0" d="M359.2,80.2H154c-1.6,0-2.9-1.3-2.9-2.9V3.1c0-1.6,1.3-2.9,2.9-2.9h205.2c1.6,0,2.9,1.3,2.9,2.9v74.2
	C362.1,79,360.8,80.2,359.2,80.2z"/>
<g>
	<path class="st1" d="M178.2,12.8c1.2,0.2,2,1.3,1.8,2.5c-0.2,1.2-1.3,2-2.5,1.8c-1.2-0.2-2-1.3-1.8-2.5S177,12.6,178.2,12.8"/>
	<path class="st2" d="M178.2,12.8c1.2,0.2,2,1.3,1.8,2.5c-0.2,1.2-1.3,2-2.5,1.8c-1.2-0.2-2-1.3-1.8-2.5
		C175.9,13.4,177,12.6,178.2,12.8"/>
	<path d="M169.6,24.3c1.2,0.2,2,1.3,1.8,2.5c-0.2,1.2-1.3,2-2.5,1.8c-1.2-0.2-2-1.3-1.8-2.5C167.3,24.8,168.4,24.1,169.6,24.3"/>
	<path d="M178.2,24.3c1.2,0.2,2,1.3,1.8,2.5c-0.2,1.2-1.3,2-2.5,1.8c-1.2-0.2-2-1.3-1.8-2.5C175.9,24.9,177,24.1,178.2,24.3"/>
	<line class="st3" x1="176.5" y1="16.7" x2="172.8" y2="21.6"/>
	<path class="st4" d="M173.6,22.2l-2.5,1.6l0.8-2.9 M171.1,23.9l1.7-2.2"/>
	<line class="st3" x1="177.6" y1="17.1" x2="177.6" y2="20.5"/>
	<path class="st4" d="M178.6,20.5l-1,2.8l-1-2.8 M177.6,23.3v-2.8"/>
	<path d="M187.2,24.3c1.2,0.2,2,1.3,1.8,2.5c-0.2,1.2-1.3,2-2.5,1.8c-1.2-0.2-2-1.3-1.8-2.5C184.9,24.9,186.1,24.1,187.2,24.3"/>
	<line class="st3" x1="179.1" y1="16.6" x2="183.2" y2="21.8"/>
	<path class="st4" d="M184,21.2l0.9,2.9l-2.6-1.6 M184.9,24l-1.7-2.2"/>
	<path d="M169.5,36.1c1.2,0.2,2,1.3,1.8,2.5c-0.2,1.2-1.3,2-2.5,1.8c-1.2-0.2-2-1.3-1.8-2.5C167.2,36.7,168.3,35.9,169.5,36.1"/>
	<path class="st1" d="M215.5,12.8c1.2,0.2,2,1.3,1.8,2.5c-0.2,1.2-1.3,2-2.5,1.8c-1.2-0.2-2-1.3-1.8-2.5S214.3,12.6,215.5,12.8"/>
	<path class="st2" d="M215.5,12.8c1.2,0.2,2,1.3,1.8,2.5c-0.2,1.2-1.3,2-2.5,1.8c-1.2-0.2-2-1.3-1.8-2.5
		C213.2,13.4,214.3,12.6,215.5,12.8"/>
	<path d="M208.6,24.3c1.2,0.2,2,1.3,1.8,2.5c-0.2,1.2-1.3,2-2.5,1.8c-1.2-0.2-2-1.3-1.8-2.5C206.3,24.8,207.4,24.1,208.6,24.3"/>
	<path d="M222.3,24.3c1.2,0.2,2,1.3,1.8,2.5c-0.2,1.2-1.3,2-2.5,1.8c-1.2-0.2-2-1.3-1.8-2.5C220,24.8,221.1,24.1,222.3,24.3"/>
	<line class="st3" x1="214" y1="16.8" x2="211.3" y2="21.3"/>
	<path class="st4" d="M212.2,21.8l-2.3,1.9l0.5-2.9 M209.8,23.7l1.4-2.4"/>
	<line class="st3" x1="216.2" y1="16.8" x2="218.9" y2="21.3"/>
	<path class="st4" d="M219.8,20.7l0.5,2.9l-2.3-1.9 M220.3,23.7l-1.4-2.4"/>
	<path d="M203.2,36.1c1.2,0.2,2,1.3,1.8,2.5c-0.2,1.2-1.3,2-2.5,1.8c-1.2-0.2-2-1.3-1.8-2.5C200.9,36.7,202,35.9,203.2,36.1"/>
	<line class="st3" x1="207.3" y1="28.4" x2="205.3" y2="32.8"/>
	<path class="st4" d="M206.2,33.3l-2.1,2.1l0.2-3 M204.1,35.4l1.2-2.5"/>
	<path d="M214.3,35.9c1.2,0.2,2,1.3,1.8,2.5c-0.2,1.2-1.3,2-2.5,1.8c-1.2-0.2-2-1.3-1.8-2.5S213.1,35.6,214.3,35.9"/>
	<line class="st3" x1="209.2" y1="28.3" x2="211.3" y2="32.6"/>
	<path class="st4" d="M212.2,32.2l0.3,3l-2.2-2 M212.5,35.2l-1.2-2.5"/>
	<path class="st1" d="M246.1,12.7c1.2,0.2,2,1.3,1.8,2.5c-0.2,1.2-1.3,2-2.5,1.8c-1.2-0.2-2-1.3-1.8-2.5
		C243.8,13.3,244.9,12.5,246.1,12.7"/>
	<path class="st2" d="M246.1,12.7c1.2,0.2,2,1.3,1.8,2.5c-0.2,1.2-1.3,2-2.5,1.8c-1.2-0.2-2-1.3-1.8-2.5
		C243.8,13.3,244.9,12.5,246.1,12.7"/>
	<path d="M238.9,34.7c1.2,0.2,2,1.3,1.8,2.5c-0.2,1.2-1.3,2-2.5,1.8c-1.2-0.2-2-1.3-1.8-2.5C236.6,35.3,237.8,34.5,238.9,34.7"/>
	<path d="M246.1,23.7c1.2,0.2,2,1.3,1.8,2.5c-0.2,1.2-1.3,2-2.5,1.8c-1.2-0.2-2-1.3-1.8-2.5C243.8,24.3,244.9,23.5,246.1,23.7"/>
	<line class="st3" x1="244.5" y1="27.6" x2="241.5" y2="31.9"/>
	<path class="st4" d="M242.4,32.5l-2.5,1.7l0.7-2.9 M240,34.2l1.6-2.3"/>
	<line class="st3" x1="245.6" y1="17" x2="245.6" y2="19.9"/>
	<path class="st4" d="M246.6,19.9l-1,2.8l-1-2.8 M245.6,22.7v-2.8"/>
	<path d="M254.2,34.7c1.2,0.2,2,1.3,1.8,2.5c-0.2,1.2-1.3,2-2.5,1.8c-1.2-0.2-2-1.3-1.8-2.5C251.9,35.3,253,34.5,254.2,34.7"/>
	<line class="st3" x1="247" y1="27.6" x2="250.3" y2="32"/>
	<path class="st4" d="M251.1,31.4l0.8,2.9l-2.5-1.6 M251.9,34.3l-1.7-2.3"/>
	<path d="M238.9,47.4c1.2,0.2,2,1.3,1.8,2.5c-0.2,1.2-1.3,2-2.5,1.8c-1.2-0.2-2-1.3-1.8-2.5S237.8,47.2,238.9,47.4"/>
	<line class="st3" x1="238.6" y1="39" x2="238.6" y2="43.6"/>
	<path class="st4" d="M239.6,43.6l-1,2.8l-1-2.8 M238.6,46.4v-2.8"/>
	<path class="st1" d="M279.1,12.7c1.2,0.2,2,1.3,1.8,2.5c-0.2,1.2-1.3,2-2.5,1.8c-1.2-0.2-2-1.3-1.8-2.5
		C276.8,13.3,278,12.5,279.1,12.7"/>
	<path class="st2" d="M279.1,12.7c1.2,0.2,2,1.3,1.8,2.5c-0.2,1.2-1.3,2-2.5,1.8c-1.2-0.2-2-1.3-1.8-2.5
		C276.8,13.3,278,12.5,279.1,12.7"/>
	<path d="M279.2,34.7c1.2,0.2,2,1.3,1.8,2.5c-0.2,1.2-1.3,2-2.5,1.8c-1.2-0.2-2-1.3-1.8-2.5C276.9,35.3,278,34.5,279.2,34.7"/>
	<path d="M279.1,23.7c1.2,0.2,2,1.3,1.8,2.5c-0.2,1.2-1.3,2-2.5,1.8c-1.2-0.2-2-1.3-1.8-2.5C276.8,24.3,278,23.5,279.1,23.7"/>
	<line class="st3" x1="278.8" y1="28" x2="278.8" y2="30.9"/>
	<path class="st4" d="M279.8,30.8l-1,2.8l-1.1-2.8 M278.8,33.7l0-2.8"/>
	<line class="st3" x1="278.6" y1="17" x2="278.6" y2="19.9"/>
	<path class="st4" d="M279.6,19.9l-1,2.8l-1-2.8 M278.6,22.7v-2.8"/>
	<path d="M286.2,47.4c1.2,0.2,2,1.3,1.8,2.5c-0.2,1.2-1.3,2-2.5,1.8c-1.2-0.2-2-1.3-1.8-2.5S285.1,47.2,286.2,47.4"/>
	<line class="st3" x1="279.9" y1="38.7" x2="283" y2="44.3"/>
	<path class="st4" d="M283.9,43.8l0.4,3l-2.3-1.9 M284.3,46.8l-1.4-2.4"/>
	<path d="M273.5,47.4c1.2,0.2,2,1.3,1.8,2.5c-0.2,1.2-1.3,2-2.5,1.8c-1.2-0.2-2-1.3-1.8-2.5S272.3,47.2,273.5,47.4"/>
	<line class="st3" x1="277.9" y1="38.8" x2="275.5" y2="44.1"/>
	<path class="st4" d="M276.5,44.5l-2.1,2.1l0.2-3 M274.4,46.7l1.2-2.6"/>
	<text transform="matrix(1 0 0 1 218.0655 70.3983)"><tspan x="0" y="0" class="st5 st6">r</tspan><tspan x="2.2" y="0" class="st5 st6">ooted</tspan></text>
	<path class="st7" d="M283.1,58.3L283.1,58.3c-0.1,0.1-0.2,0.4-0.4,0.6c-0.2,0.2-0.4,0.4-0.7,0.5s-0.6,0.3-0.9,0.5
		c-0.3,0.2-0.7,0.3-1.2,0.4c-0.4,0.1-0.9,0.3-1.4,0.4c-0.5,0.1-1,0.2-1.6,0.3c-0.5,0.1-0.7,0.2-1.7,0.2c-1,0,1.8,0-4.5,0
		c-6.3,0-27.6,0.1-33.1,0.1c-0.3,0-1.3,0.1-1.8,0.1c-0.6,0.1-1.2,0.1-1.7,0.2s-1.1,0.2-1.6,0.3c-0.5,0.1-1,0.2-1.4,0.4
		c-0.4,0.1-0.8,0.3-1.2,0.4c-0.3,0.2-0.7,0.3-0.9,0.5c-0.3,0.2-0.5,0.4-0.7,0.5c-0.2,0.2-0.2,0.4-0.3,0.5"/>
	<path class="st7" d="M173.1,58.3L173.1,58.3c0.1,0.1,0.2,0.4,0.4,0.6c0.2,0.2,0.4,0.4,0.7,0.5c0.3,0.2,0.6,0.3,0.9,0.5
		c0.3,0.2,0.7,0.3,1.2,0.4c0.4,0.1,0.9,0.3,1.4,0.4c0.5,0.1,1,0.2,1.6,0.3s0.7,0.2,1.7,0.2c1,0-1.8,0,4.5,0c6.3,0,27.6,0.1,33.1,0.1
		c0.3,0,1.3,0.1,1.8,0.1c0.6,0.1,1.2,0.1,1.7,0.2c0.5,0.1,1.1,0.2,1.6,0.3c0.5,0.1,1,0.2,1.4,0.4c0.4,0.1,0.8,0.3,1.2,0.4
		c0.3,0.2,0.7,0.3,0.9,0.5c0.3,0.2,0.5,0.4,0.7,0.5c0.2,0.2,0.2,0.4,0.3,0.5"/>
	<path d="M315.9,26.7c0.2-1.2,1.3-2,2.5-1.8c1.2,0.2,2,1.3,1.8,2.5s-1.3,2-2.5,1.8C316.5,29.1,315.7,27.9,315.9,26.7"/>
	<path d="M334.7,38c0.2-1.2,1.3-2,2.5-1.8c1.2,0.2,2,1.3,1.8,2.5c-0.2,1.2-1.3,2-2.5,1.8C335.3,40.3,334.5,39.1,334.7,38"/>
	<path d="M328.5,26.7c0.2-1.2,1.3-2,2.5-1.8c1.2,0.2,2,1.3,1.8,2.5s-1.3,2-2.5,1.8C329.1,29.1,328.3,27.9,328.5,26.7"/>
	<line class="st7" x1="331.7" y1="29" x2="335.8" y2="36.4"/>
	<line class="st7" x1="320.2" y1="27.1" x2="328.5" y2="27.1"/>
	<path d="M334.7,14.5c0.2-1.2,1.3-2,2.5-1.8c1.2,0.2,2,1.3,1.8,2.5c-0.2,1.2-1.3,2-2.5,1.8C335.3,16.9,334.5,15.7,334.7,14.5"/>
	<line class="st7" x1="331.6" y1="25.2" x2="335.9" y2="16.9"/>
	<path d="M303.6,26.7c0.2-1.2,1.3-2,2.5-1.8c1.2,0.2,2,1.3,1.8,2.5c-0.2,1.2-1.3,2-2.5,1.8C304.2,29.1,303.4,27.9,303.6,26.7"/>
	<line class="st7" x1="315.9" y1="27.1" x2="307.9" y2="27.1"/>
	<text transform="matrix(1 0 0 1 308.9497 70.3983)"><tspan x="0" y="0" class="st5 st6">un</tspan><tspan x="7.8" y="0" class="st5 st6">r</tspan><tspan x="10" y="0" class="st5 st6">ooted</tspan></text>
	<path class="st7" d="M323,63.8L323,63.8c0-0.1,0.1-0.3,0.1-0.5c0-0.2,0.1-0.3,0.2-0.4c0.1-0.1,0.2-0.3,0.3-0.4
		c0.1-0.1,0.2-0.2,0.3-0.4c0.1-0.1,0.2-0.2,0.4-0.3c0.1-0.1,0.3-0.2,0.4-0.2c0.1-0.1,0.2-0.1,0.5-0.2c0.3,0-0.5,0,1.2,0
		s7.5-0.1,9-0.1c0.1,0,0.3-0.1,0.5-0.1c0.2,0,0.3-0.1,0.5-0.2s0.3-0.2,0.4-0.2c0.1-0.1,0.3-0.2,0.4-0.3c0.1-0.1,0.2-0.2,0.3-0.4
		c0.1-0.1,0.2-0.3,0.3-0.4c0.1-0.1,0.1-0.3,0.2-0.4s0.1-0.3,0.1-0.5"/>
	<path class="st7" d="M323,63.8L323,63.8c0-0.1-0.1-0.3-0.1-0.5c0-0.2-0.1-0.3-0.2-0.4c-0.1-0.1-0.2-0.3-0.3-0.4
		c-0.1-0.1-0.2-0.2-0.3-0.4c-0.1-0.1-0.2-0.2-0.4-0.3c-0.1-0.1-0.3-0.2-0.4-0.2c-0.1-0.1-0.2-0.1-0.5-0.2c-0.3,0,0.5,0-1.2,0
		s-7.5-0.1-9-0.1c-0.1,0-0.3-0.1-0.5-0.1c-0.2,0-0.3-0.1-0.5-0.2c-0.1-0.1-0.3-0.2-0.4-0.2c-0.1-0.1-0.3-0.2-0.4-0.3
		c-0.1-0.1-0.2-0.2-0.3-0.4c-0.1-0.1-0.2-0.3-0.3-0.4c-0.1-0.1-0.1-0.3-0.2-0.4c0-0.2-0.1-0.3-0.1-0.5"/>
	<line class="st3" x1="169.2" y1="28.6" x2="169.2" y2="32.3"/>
	<path class="st4" d="M170.2,32.3l-1.1,2.8l-1-2.8 M169.1,35.1l0-2.8"/>
</g>
<path class="st1" d="M276.7,110.5c1.2,0.2,2,1.3,1.8,2.5c-0.2,1.2-1.3,2-2.5,1.8c-1.2-0.2-2-1.3-1.8-2.5S275.5,110.3,276.7,110.5"/>
<path class="st2" d="M276.7,110.5c1.2,0.2,2,1.3,1.8,2.5c-0.2,1.2-1.3,2-2.5,1.8c-1.2-0.2-2-1.3-1.8-2.5
	C274.4,111.1,275.5,110.3,276.7,110.5"/>
<path d="M269.8,121.9c1.2,0.2,2,1.3,1.8,2.5c-0.2,1.2-1.3,2-2.5,1.8c-1.2-0.2-2-1.3-1.8-2.5S268.7,121.7,269.8,121.9"/>
<path d="M283.6,121.9c1.2,0.2,2,1.3,1.8,2.5c-0.2,1.2-1.3,2-2.5,1.8c-1.2-0.2-2-1.3-1.8-2.5C281.3,122.5,282.4,121.7,283.6,121.9"/>
<line class="st7" x1="275.2" y1="114.5" x2="270.6" y2="122.2"/>
<line class="st7" x1="277.5" y1="114.5" x2="282.1" y2="122.2"/>
<path d="M269.8,135.3c1.2,0.2,2,1.3,1.8,2.5c-0.2,1.2-1.3,2-2.5,1.8c-1.2-0.2-2-1.3-1.8-2.5C267.5,135.8,268.7,135,269.8,135.3"/>
<line class="st7" x1="269.5" y1="126.3" x2="269.5" y2="135.2"/>
<path d="M283.6,135.3c1.2,0.2,2,1.3,1.8,2.5c-0.2,1.2-1.3,2-2.5,1.8c-1.2-0.2-2-1.3-1.8-2.5C281.3,135.8,282.4,135,283.6,135.3"/>
<line class="st7" x1="283.2" y1="126.3" x2="283.2" y2="135.2"/>
<path class="st1" d="M315.6,110.5c1.2,0.2,2,1.3,1.8,2.5c-0.2,1.2-1.3,2-2.5,1.8c-1.2-0.2-2-1.3-1.8-2.5S314.4,110.3,315.6,110.5"/>
<path class="st2" d="M315.6,110.5c1.2,0.2,2,1.3,1.8,2.5c-0.2,1.2-1.3,2-2.5,1.8c-1.2-0.2-2-1.3-1.8-2.5
	C313.3,111.1,314.4,110.3,315.6,110.5"/>
<path d="M308.7,119.2c1.2,0.2,2,1.3,1.8,2.5s-1.3,2-2.5,1.8c-1.2-0.2-2-1.3-1.8-2.5S307.5,119,308.7,119.2"/>
<path d="M322.4,119.2c1.2,0.2,2,1.3,1.8,2.5s-1.3,2-2.5,1.8c-1.2-0.2-2-1.3-1.8-2.5C320.1,119.8,321.3,119,322.4,119.2"/>
<line class="st7" x1="313.8" y1="114.3" x2="309.7" y2="119.7"/>
<line class="st7" x1="316.5" y1="114.3" x2="320.7" y2="119.7"/>
<path d="M308.7,129.7c1.2,0.2,2,1.3,1.8,2.5c-0.2,1.2-1.3,2-2.5,1.8c-1.2-0.2-2-1.3-1.8-2.5S307.5,129.5,308.7,129.7"/>
<line class="st7" x1="308.5" y1="123.5" x2="308.5" y2="129.7"/>
<path d="M308.7,140c1.2,0.2,2,1.3,1.8,2.5c-0.2,1.2-1.3,2-2.5,1.8c-1.2-0.2-2-1.3-1.8-2.5S307.5,139.8,308.7,140"/>
<line class="st7" x1="308.5" y1="134" x2="308.5" y2="139.9"/>
<path class="st1" d="M352.1,110.5c1.2,0.2,2,1.3,1.8,2.5s-1.3,2-2.5,1.8c-1.2-0.2-2-1.3-1.8-2.5S350.9,110.3,352.1,110.5"/>
<path class="st2" d="M352.1,110.5c1.2,0.2,2,1.3,1.8,2.5c-0.2,1.2-1.3,2-2.5,1.8s-2-1.3-1.8-2.5
	C349.8,111.1,350.9,110.3,352.1,110.5"/>
<path d="M344.5,132.5c1.2,0.2,2,1.3,1.8,2.5c-0.2,1.2-1.3,2-2.5,1.8c-1.2-0.2-2-1.3-1.8-2.5S343.3,132.3,344.5,132.5"/>
<path d="M352.1,121.5c1.2,0.2,2,1.3,1.8,2.5s-1.3,2-2.5,1.8c-1.2-0.2-2-1.3-1.8-2.5S350.9,121.3,352.1,121.5"/>
<line class="st7" x1="350.5" y1="125.4" x2="345.4" y2="132.8"/>
<line class="st7" x1="351.7" y1="114.8" x2="351.7" y2="121.4"/>
<path d="M360.1,132.5c1.2,0.2,2,1.3,1.8,2.5s-1.3,2-2.5,1.8c-1.2-0.2-2-1.3-1.8-2.5S359,132.3,360.1,132.5"/>
<line class="st7" x1="353" y1="125.4" x2="358.5" y2="132.9"/>
<path d="M344.5,145.2c1.2,0.2,2,1.3,1.8,2.5c-0.2,1.2-1.3,2-2.5,1.8c-1.2-0.2-2-1.3-1.8-2.5C342.2,145.8,343.3,145,344.5,145.2"/>
<line class="st7" x1="344.5" y1="136.8" x2="344.5" y2="145.2"/>
<path class="st1" d="M384.5,110.5c1.2,0.2,2,1.3,1.8,2.5s-1.3,2-2.5,1.8c-1.2-0.2-2-1.3-1.8-2.5S383.3,110.3,384.5,110.5"/>
<path class="st2" d="M384.5,110.5c1.2,0.2,2,1.3,1.8,2.5c-0.2,1.2-1.3,2-2.5,1.8c-1.2-0.2-2-1.3-1.8-2.5
	C382.2,111.1,383.3,110.3,384.5,110.5"/>
<path d="M384.6,132.5c1.2,0.2,2,1.3,1.8,2.5s-1.3,2-2.5,1.8c-1.2-0.2-2-1.3-1.8-2.5C382.3,133.1,383.4,132.3,384.6,132.5"/>
<path d="M384.5,121.5c1.2,0.2,2,1.3,1.8,2.5s-1.3,2-2.5,1.8c-1.2-0.2-2-1.3-1.8-2.5S383.3,121.3,384.5,121.5"/>
<line class="st7" x1="384.1" y1="125.8" x2="384.2" y2="132.4"/>
<line class="st7" x1="384.1" y1="114.8" x2="384.1" y2="121.4"/>
<path d="M391.6,145.2c1.2,0.2,2,1.3,1.8,2.5c-0.2,1.2-1.3,2-2.5,1.8c-1.2-0.2-2-1.3-1.8-2.5C389.3,145.8,390.4,145,391.6,145.2"/>
<line class="st7" x1="385.2" y1="136.5" x2="390.2" y2="145.4"/>
<path d="M378.8,145.2c1.2,0.2,2,1.3,1.8,2.5c-0.2,1.2-1.3,2-2.5,1.8c-1.2-0.2-2-1.3-1.8-2.5C376.5,145.8,377.6,145,378.8,145.2"/>
<line class="st7" x1="383.3" y1="136.6" x2="379.3" y2="145.4"/>
<path class="st1" d="M411.7,110.5c1.2,0.2,2,1.3,1.8,2.5s-1.3,2-2.5,1.8c-1.2-0.2-2-1.3-1.8-2.5
	C409.4,111.1,410.5,110.3,411.7,110.5"/>
<path class="st2" d="M411.7,110.5c1.2,0.2,2,1.3,1.8,2.5c-0.2,1.2-1.3,2-2.5,1.8c-1.2-0.2-2-1.3-1.8-2.5
	C409.4,111.1,410.5,110.3,411.7,110.5"/>
<path d="M411.7,128.5c1.2,0.2,2,1.3,1.8,2.5c-0.2,1.2-1.3,2-2.5,1.8c-1.2-0.2-2-1.3-1.8-2.5C409.4,129.1,410.5,128.3,411.7,128.5"/>
<path d="M411.7,119.6c1.2,0.2,2,1.3,1.8,2.5c-0.2,1.2-1.3,2-2.5,1.8c-1.2-0.2-2-1.3-1.8-2.5C409.4,120.2,410.5,119.4,411.7,119.6"/>
<line class="st7" x1="411.4" y1="114.8" x2="411.4" y2="119.6"/>
<line class="st7" x1="411.4" y1="123.9" x2="411.4" y2="128.5"/>
<path d="M411.7,138.1c1.2,0.2,2,1.3,1.8,2.5s-1.3,2-2.5,1.8c-1.2-0.2-2-1.3-1.8-2.5C409.4,138.7,410.5,137.9,411.7,138.1"/>
<line class="st7" x1="411.4" y1="132.8" x2="411.4" y2="138"/>
<path d="M411.7,147.7c1.2,0.2,2,1.3,1.8,2.5s-1.3,2-2.5,1.8c-1.2-0.2-2-1.3-1.8-2.5S410.5,147.5,411.7,147.7"/>
<line class="st7" x1="411.4" y1="142.4" x2="411.4" y2="147.7"/>
<text transform="matrix(1 0 0 1 405.6379 189.8127)" class="st8 st9 st10">7.0</text>
<text transform="matrix(1 0 0 1 376.6543 189.8127)" class="st8 st9 st10">4.92</text>
<text transform="matrix(1 0 0 1 342.3159 189.8127)" class="st8 st9 st10">4.33</text>
<text transform="matrix(1 0 0 1 305.5557 189.8126)" class="st8 st9 st10">4.25</text>
<text transform="matrix(1 0 0 1 269.4504 189.8126)" class="st8 st9 st10">3.5</text>
<path class="st1" d="M117.3,109.7c1.2,0.2,2,1.3,1.8,2.5c-0.2,1.2-1.3,2-2.5,1.8c-1.2-0.2-2-1.3-1.8-2.5
	C115,110.3,116.2,109.5,117.3,109.7"/>
<path class="st2" d="M117.3,109.7c1.2,0.2,2,1.3,1.8,2.5c-0.2,1.2-1.3,2-2.5,1.8c-1.2-0.2-2-1.3-1.8-2.5
	C115,110.3,116.2,109.5,117.3,109.7"/>
<path d="M106.9,121.6c1.2,0.2,2,1.3,1.8,2.5c-0.2,1.2-1.3,2-2.5,1.8c-1.2-0.2-2-1.3-1.8-2.5C104.6,122.2,105.7,121.4,106.9,121.6"/>
<path d="M113.6,121.7c1.2,0.2,2,1.3,1.8,2.5c-0.2,1.2-1.3,2-2.5,1.8s-2-1.3-1.8-2.5S112.4,121.5,113.6,121.7"/>
<line class="st7" x1="115.5" y1="113.5" x2="108" y2="122.1"/>
<line class="st7" x1="116.3" y1="113.9" x2="113.9" y2="121.8"/>
<path d="M128.8,121.7c1.2,0.2,2,1.3,1.8,2.5s-1.3,2-2.5,1.8s-2-1.3-1.8-2.5C126.5,122.3,127.6,121.5,128.8,121.7"/>
<line class="st7" x1="118.5" y1="113.4" x2="126.9" y2="122.3"/>
<path d="M121,121.4c1.2,0.2,2,1.3,1.8,2.5c-0.2,1.2-1.3,2-2.5,1.8c-1.2-0.2-2-1.3-1.8-2.5C118.7,122,119.8,121.2,121,121.4"/>
<line class="st7" x1="117.6" y1="113.9" x2="119.9" y2="121.5"/>
<path class="st1" d="M159.2,109.7c1.2,0.2,2,1.3,1.8,2.5c-0.2,1.2-1.3,2-2.5,1.8c-1.2-0.2-2-1.3-1.8-2.5
	C156.9,110.3,158,109.5,159.2,109.7"/>
<path class="st2" d="M159.2,109.7c1.2,0.2,2,1.3,1.8,2.5c-0.2,1.2-1.3,2-2.5,1.8c-1.2-0.2-2-1.3-1.8-2.5
	C156.9,110.3,158,109.5,159.2,109.7"/>
<path d="M150.6,121.2c1.2,0.2,2,1.3,1.8,2.5s-1.3,2-2.5,1.8c-1.2-0.2-2-1.3-1.8-2.5C148.3,121.8,149.5,121,150.6,121.2"/>
<path d="M159.2,121.3c1.2,0.2,2,1.3,1.8,2.5c-0.2,1.2-1.3,2-2.5,1.8c-1.2-0.2-2-1.3-1.8-2.5C156.9,121.9,158,121.1,159.2,121.3"/>
<line class="st7" x1="157.5" y1="113.6" x2="151.6" y2="121.6"/>
<line class="st7" x1="158.8" y1="114" x2="158.8" y2="121.3"/>
<path d="M168.3,121.3c1.2,0.2,2,1.3,1.8,2.5s-1.3,2-2.5,1.8c-1.2-0.2-2-1.3-1.8-2.5C166,121.9,167.1,121.1,168.3,121.3"/>
<line class="st7" x1="160.2" y1="113.6" x2="166.6" y2="121.7"/>
<path d="M150.5,133.1c1.2,0.2,2,1.3,1.8,2.5s-1.3,2-2.5,1.8s-2-1.3-1.8-2.5C148.2,133.6,149.3,132.9,150.5,133.1"/>
<line class="st7" x1="150.2" y1="133" x2="150.2" y2="125.5"/>
<text transform="matrix(1 0 0 1 228.7225 189.8126)" class="st8 st9 st10">2.75</text>
<text transform="matrix(1 0 0 1 193.8349 189.8126)" class="st8 st9 st10">2.5</text>
<text transform="matrix(1 0 0 1 149.3948 189.8126)" class="st8 st9 st10">2.25</text>
<text transform="matrix(1 0 0 1 114.2102 189.8127)" class="st8 st9 st10">1.0</text>
<path class="st1" d="M201.1,109.7c1.2,0.2,2,1.3,1.8,2.5s-1.3,2-2.5,1.8c-1.2-0.2-2-1.3-1.8-2.5
	C198.8,110.3,199.9,109.5,201.1,109.7"/>
<path class="st2" d="M201.1,109.7c1.2,0.2,2,1.3,1.8,2.5c-0.2,1.2-1.3,2-2.5,1.8c-1.2-0.2-2-1.3-1.8-2.5
	C198.8,110.3,199.9,109.5,201.1,109.7"/>
<path d="M194.2,121.2c1.2,0.2,2,1.3,1.8,2.5s-1.3,2-2.5,1.8c-1.2-0.2-2-1.3-1.8-2.5S193,121,194.2,121.2"/>
<path d="M208,121.2c1.2,0.2,2,1.3,1.8,2.5s-1.3,2-2.5,1.8c-1.2-0.2-2-1.3-1.8-2.5C205.7,121.8,206.8,121,208,121.2"/>
<line class="st7" x1="199.6" y1="113.7" x2="195" y2="121.5"/>
<line class="st7" x1="201.8" y1="113.7" x2="206.5" y2="121.5"/>
<path d="M188.8,133.1c1.2,0.2,2,1.3,1.8,2.5c-0.2,1.2-1.3,2-2.5,1.8s-2-1.3-1.8-2.5C186.5,133.6,187.6,132.9,188.8,133.1"/>
<line class="st7" x1="192.9" y1="125.3" x2="189.4" y2="133.2"/>
<path d="M200,132.8c1.2,0.2,2,1.3,1.8,2.5c-0.2,1.2-1.3,2-2.5,1.8c-1.2-0.2-2-1.3-1.8-2.5C197.6,133.4,198.8,132.6,200,132.8"/>
<line class="st7" x1="194.8" y1="125.3" x2="198.6" y2="133"/>
<path class="st1" d="M238.7,109.7c1.2,0.2,2,1.3,1.8,2.5s-1.3,2-2.5,1.8c-1.2-0.2-2-1.3-1.8-2.5
	C236.4,110.3,237.5,109.5,238.7,109.7"/>
<path class="st2" d="M238.7,109.7c1.2,0.2,2,1.3,1.8,2.5c-0.2,1.2-1.3,2-2.5,1.8c-1.2-0.2-2-1.3-1.8-2.5
	C236.4,110.3,237.5,109.5,238.7,109.7"/>
<path d="M231.1,131.7c1.2,0.2,2,1.3,1.8,2.5c-0.2,1.2-1.3,2-2.5,1.8c-1.2-0.2-2-1.3-1.8-2.5S230,131.5,231.1,131.7"/>
<path d="M238.7,120.7c1.2,0.2,2,1.3,1.8,2.5c-0.2,1.2-1.3,2-2.5,1.8c-1.2-0.2-2-1.3-1.8-2.5C236.4,121.3,237.5,120.5,238.7,120.7"/>
<line class="st7" x1="237.1" y1="124.7" x2="232" y2="132.1"/>
<line class="st7" x1="238.3" y1="114" x2="238.3" y2="120.7"/>
<path d="M246.8,131.7c1.2,0.2,2,1.3,1.8,2.5c-0.2,1.2-1.3,2-2.5,1.8c-1.2-0.2-2-1.3-1.8-2.5S245.6,131.5,246.8,131.7"/>
<line class="st7" x1="239.6" y1="124.6" x2="245.1" y2="132.1"/>
<path d="M238.7,131.7c1.2,0.2,2,1.3,1.8,2.5c-0.2,1.2-1.3,2-2.5,1.8c-1.2-0.2-2-1.3-1.8-2.5S237.5,131.5,238.7,131.7"/>
<line class="st7" x1="238.3" y1="125" x2="238.3" y2="131.7"/>
<line class="st11" x1="35.1" y1="106" x2="424.1" y2="106"/>
<line class="st11" x1="35.1" y1="157" x2="424.1" y2="157"/>
<line class="st11" x1="35.1" y1="197" x2="424.1" y2="197"/>
<text transform="matrix(1 0 0 1 405.6382 170.8127)" class="st12 st9 st10">2.0</text>
<text transform="matrix(1 0 0 1 376.6543 170.8127)" class="st13 st9 st10">1.8</text>
<text transform="matrix(1 0 0 1 342.3159 170.8127)" class="st13 st9 st10">1.8</text>
<text transform="matrix(1 0 0 1 305.5557 170.8126)" class="st12 st9 st10">2.0</text>
<text transform="matrix(1 0 0 1 269.4504 170.8126)" class="st12 st9 st10">2.0</text>
<text transform="matrix(1 0 0 1 228.7225 170.8126)" class="st14 st9 st10">1.6</text>
<text transform="matrix(1 0 0 1 193.8349 170.8126)" class="st13 st9 st10">1.8</text>
<text transform="matrix(1 0 0 1 149.3948 170.8126)" class="st13 st9 st10">1.8</text>
<text id="XMLID_1_" transform="matrix(1 0 0 1 114.2102 170.8127)" class="st14 st9 st10">1.6</text>
<text transform="matrix(1 0 0 1 37.8501 170.3555)" class="st15 st16">Wiener index</text>
<text transform="matrix(1.0128 0 0 1 36.873 189.3555)" class="st15 st16">Cascade virality</text>
<text transform="matrix(1 0 0 1 37.8501 126.3555)"><tspan x="0" y="0" class="st15 st16">Cascades </tspan><tspan x="0" y="10" class="st15 st16">of size 5</tspan></text>
</svg>
