<?xml version="1.0" encoding="utf-8"?>
<!-- Generator: Adobe Illustrator 22.0.1, SVG Export Plug-In . SVG Version: 6.00 Build 0)  -->
<svg version="1.1" id="Layer_1" xmlns="http://www.w3.org/2000/svg" xmlns:xlink="http://www.w3.org/1999/xlink" x="0px" y="0px"
	 viewBox="0 0 429.3 230.2" style="enable-background:new 0 0 429.3 230.2;" xml:space="preserve">
<style type="text/css">
	.st0{opacity:0.1;fill:#E6E6E6;stroke:#000000;stroke-width:0.5;stroke-miterlimit:10;enable-background:new    ;}
	.st1{opacity:0.7995;fill:#F6911E;enable-background:new    ;}
	.st2{fill:none;stroke:#000000;stroke-width:0.6;stroke-linecap:round;stroke-linejoin:round;stroke-miterlimit:10;}
	.st3{fill:none;stroke:#000000;stroke-width:0.35;stroke-linecap:round;stroke-linejoin:round;stroke-miterlimit:10;}
	.st4{fill:none;stroke:#000000;stroke-width:0.35;stroke-miterlimit:10;}
	.st5{font-family:'HelveticaNeue';}
	.st6{font-size:7px;}
	.st7{fill:none;stroke:#000000;stroke-width:0.5;stroke-linecap:round;stroke-linejoin:round;stroke-miterlimit:10;}
	.st8{fill:#2A3384;}
	.st9{font-family:'TimesNewRomanPSMT';}
	.st10{font-size:11px;}
	.st11{fill:none;stroke:#000000;stroke-width:0.5;stroke-miterlimit:10;stroke-dasharray:4,1;}
	.st12{fill:#F7931E;}
	.st13{fill:#29ABE2;}
	.st14{fill:#C1272D;}
	.st15{font-family:'LucidaGrande';}
	.st16{font-size:9px;}
</style>
<path class="st0" d="M343,95H137.8c-1.6,0-2.9-1.3-2.9-2.9V17.9c0-1.6,1.3-2.9,2.9-2.9H343c1.6,0,2.9,1.3,2.9,2.9v74.2
	C345.9,93.7,344.6,95,343,95z"/>
<g>
	<path class="st1" d="M162,27.6c1.2,0.2,2,1.3,1.8,2.5s-1.3,2-2.5,1.8c-1.2-0.2-2-1.3-1.8-2.5C159.7,28.1,160.8,27.3,162,27.6"/>
	<path class="st2" d="M162,27.6c1.2,0.2,2,1.3,1.8,2.5s-1.3,2-2.5,1.8c-1.2-0.2-2-1.3-1.8-2.5C159.7,28.1,160.8,27.3,162,27.6"/>
	<path d="M153.4,39c1.2,0.2,2,1.3,1.8,2.5s-1.3,2-2.5,1.8s-2-1.3-1.8-2.5C151.1,39.6,152.3,38.8,153.4,39"/>
	<path d="M162,39.1c1.2,0.2,2,1.3,1.8,2.5s-1.3,2-2.5,1.8s-2-1.3-1.8-2.5C159.7,39.7,160.8,38.9,162,39.1"/>
	<line class="st3" x1="160.3" y1="31.4" x2="156.6" y2="36.4"/>
	<path class="st4" d="M157.5,37l-2.5,1.6l0.8-2.9 M155,38.6l1.7-2.2"/>
	<line class="st3" x1="161.4" y1="31.9" x2="161.4" y2="35.3"/>
	<path class="st4" d="M162.5,35.3l-1,2.8l-1-2.8 M161.4,38.1v-2.8"/>
	<path d="M171.1,39.1c1.2,0.2,2,1.3,1.8,2.5s-1.3,2-2.5,1.8s-2-1.3-1.8-2.5C168.8,39.7,169.9,38.9,171.1,39.1"/>
	<line class="st3" x1="163" y1="31.4" x2="167" y2="36.6"/>
	<path class="st4" d="M167.9,35.9l0.9,2.9l-2.6-1.6 M168.8,38.8l-1.7-2.2"/>
	<path d="M153.3,50.9c1.2,0.2,2,1.3,1.8,2.5s-1.3,2-2.5,1.8s-2-1.3-1.8-2.5S152.1,50.7,153.3,50.9"/>
	<path class="st1" d="M199.3,27.6c1.2,0.2,2,1.3,1.8,2.5s-1.3,2-2.5,1.8c-1.2-0.2-2-1.3-1.8-2.5C197,28.1,198.1,27.3,199.3,27.6"/>
	<path class="st2" d="M199.3,27.6c1.2,0.2,2,1.3,1.8,2.5s-1.3,2-2.5,1.8c-1.2-0.2-2-1.3-1.8-2.5C197,28.1,198.1,27.3,199.3,27.6"/>
	<path d="M192.4,39c1.2,0.2,2,1.3,1.8,2.5s-1.3,2-2.5,1.8s-2-1.3-1.8-2.5C190.1,39.6,191.3,38.8,192.4,39"/>
	<path d="M206.2,39c1.2,0.2,2,1.3,1.8,2.5s-1.3,2-2.5,1.8s-2-1.3-1.8-2.5S205,38.8,206.2,39"/>
	<line class="st3" x1="197.8" y1="31.6" x2="195.1" y2="36"/>
	<path class="st4" d="M196,36.6l-2.3,1.9l0.5-2.9 M193.7,38.4l1.4-2.4"/>
	<line class="st3" x1="200.1" y1="31.6" x2="202.7" y2="36"/>
	<path class="st4" d="M203.6,35.5l0.5,2.9l-2.3-1.9 M204.2,38.4l-1.4-2.4"/>
	<path d="M187.1,50.9c1.2,0.2,2,1.3,1.8,2.5s-1.3,2-2.5,1.8s-2-1.3-1.8-2.5C184.7,51.5,185.9,50.7,187.1,50.9"/>
	<line class="st3" x1="191.2" y1="43.1" x2="189.1" y2="47.6"/>
	<path class="st4" d="M190.1,48l-2.1,2.1l0.2-3 M188,50.1l1.2-2.5"/>
	<path d="M198.2,50.6c1.2,0.2,2,1.3,1.8,2.5s-1.3,2-2.5,1.8s-2-1.3-1.8-2.5C195.9,51.2,197,50.4,198.2,50.6"/>
	<line class="st3" x1="193" y1="43.1" x2="195.2" y2="47.4"/>
	<path class="st4" d="M196.1,46.9l0.3,3l-2.2-2 M196.4,49.9l-1.2-2.5"/>
	<path class="st1" d="M230,27.4c1.2,0.2,2,1.3,1.8,2.5s-1.3,2-2.5,1.8s-2-1.3-1.8-2.5C227.7,28,228.8,27.2,230,27.4"/>
	<path class="st2" d="M230,27.4c1.2,0.2,2,1.3,1.8,2.5s-1.3,2-2.5,1.8s-2-1.3-1.8-2.5C227.7,28,228.8,27.2,230,27.4"/>
	<path d="M222.8,49.4c1.2,0.2,2,1.3,1.8,2.5s-1.3,2-2.5,1.8s-2-1.3-1.8-2.5S221.6,49.2,222.8,49.4"/>
	<path d="M230,38.4c1.2,0.2,2,1.3,1.8,2.5s-1.3,2-2.5,1.8s-2-1.3-1.8-2.5S228.8,38.2,230,38.4"/>
	<line class="st3" x1="228.4" y1="42.4" x2="225.4" y2="46.7"/>
	<path class="st4" d="M226.3,47.3l-2.5,1.7l0.7-2.9 M223.8,49l1.6-2.3"/>
	<line class="st3" x1="229.4" y1="31.7" x2="229.4" y2="34.6"/>
	<path class="st4" d="M230.5,34.6l-1,2.8l-1-2.8 M229.4,37.4v-2.8"/>
	<path d="M238,49.4c1.2,0.2,2,1.3,1.8,2.5s-1.3,2-2.5,1.8s-2-1.3-1.8-2.5S236.9,49.2,238,49.4"/>
	<line class="st3" x1="230.9" y1="42.3" x2="234.1" y2="46.8"/>
	<path class="st4" d="M235,46.2l0.8,2.9l-2.5-1.6 M235.8,49l-1.7-2.3"/>
	<path d="M222.8,62.2c1.2,0.2,2,1.3,1.8,2.5s-1.3,2-2.5,1.8s-2-1.3-1.8-2.5C220.5,62.7,221.6,62,222.8,62.2"/>
	<line class="st3" x1="222.4" y1="53.7" x2="222.4" y2="58.3"/>
	<path class="st4" d="M223.5,58.3l-1,2.8l-1-2.8 M222.4,61.1v-2.8"/>
	<path class="st1" d="M263,27.4c1.2,0.2,2,1.3,1.8,2.5s-1.3,2-2.5,1.8s-2-1.3-1.8-2.5C260.7,28,261.8,27.2,263,27.4"/>
	<path class="st2" d="M263,27.4c1.2,0.2,2,1.3,1.8,2.5s-1.3,2-2.5,1.8s-2-1.3-1.8-2.5C260.7,28,261.8,27.2,263,27.4"/>
	<path d="M263.1,49.4c1.2,0.2,2,1.3,1.8,2.5s-1.3,2-2.5,1.8s-2-1.3-1.8-2.5C260.8,50,261.9,49.2,263.1,49.4"/>
	<path d="M263,38.4c1.2,0.2,2,1.3,1.8,2.5s-1.3,2-2.5,1.8s-2-1.3-1.8-2.5S261.8,38.2,263,38.4"/>
	<line class="st3" x1="262.6" y1="42.7" x2="262.7" y2="45.6"/>
	<path class="st4" d="M263.7,45.6l-1,2.8l-1.1-2.8 M262.7,48.4v-2.8"/>
	<line class="st3" x1="262.4" y1="31.7" x2="262.4" y2="34.6"/>
	<path class="st4" d="M263.5,34.6l-1,2.8l-1-2.8 M262.4,37.4v-2.8"/>
	<path d="M270.1,62.2c1.2,0.2,2,1.3,1.8,2.5s-1.3,2-2.5,1.8s-2-1.3-1.8-2.5C267.8,62.7,268.9,62,270.1,62.2"/>
	<line class="st3" x1="263.7" y1="53.5" x2="266.8" y2="59.1"/>
	<path class="st4" d="M267.8,58.6l0.4,3l-2.3-1.9 M268.2,61.5l-1.4-2.4"/>
	<path d="M257.3,62.2c1.2,0.2,2,1.3,1.8,2.5s-1.3,2-2.5,1.8c-1.2-0.2-2-1.3-1.8-2.5S256.1,62,257.3,62.2"/>
	<line class="st3" x1="261.8" y1="53.6" x2="259.4" y2="58.9"/>
	<path class="st4" d="M260.3,59.3l-2.1,2.1l0.2-3 M258.2,61.4l1.2-2.6"/>
	<text transform="matrix(1 0 0 1 201.9194 85.1632)" class="st5 st6">r</text>
	<text transform="matrix(1 0 0 1 204.1194 85.1632)" class="st5 st6">ooted</text>
	<path class="st7" d="M266.9,73L266.9,73c-0.1,0.1-0.2,0.4-0.4,0.6c-0.2,0.2-0.4,0.4-0.7,0.5s-0.6,0.3-0.9,0.5s-0.7,0.3-1.2,0.4
		c-0.4,0.1-0.9,0.3-1.4,0.4s-1,0.2-1.6,0.3c-0.5,0.1-0.7,0.2-1.7,0.2s1.8,0-4.5,0c-6.3,0-27.6,0.1-33.1,0.1c-0.3,0-1.3,0.1-1.8,0.1
		c-0.6,0.1-1.2,0.1-1.7,0.2s-1.1,0.2-1.6,0.3c-0.5,0.1-1,0.2-1.4,0.4c-0.4,0.1-0.8,0.3-1.2,0.4c-0.3,0.2-0.7,0.3-0.9,0.5
		c-0.3,0.2-0.5,0.4-0.7,0.5c-0.2,0.2-0.2,0.4-0.3,0.5"/>
	<path class="st7" d="M156.9,73L156.9,73c0.1,0.1,0.2,0.4,0.4,0.6s0.4,0.4,0.7,0.5c0.3,0.2,0.6,0.3,0.9,0.5c0.3,0.2,0.7,0.3,1.2,0.4
		c0.4,0.1,0.9,0.3,1.4,0.4s1,0.2,1.6,0.3s0.7,0.2,1.7,0.2s-1.8,0,4.5,0s27.6,0.1,33.1,0.1c0.3,0,1.3,0.1,1.8,0.1
		c0.6,0.1,1.2,0.1,1.7,0.2s1.1,0.2,1.6,0.3c0.5,0.1,1,0.2,1.4,0.4c0.4,0.1,0.8,0.3,1.2,0.4c0.3,0.2,0.7,0.3,0.9,0.5
		c0.3,0.2,0.5,0.4,0.7,0.5c0.2,0.2,0.2,0.4,0.3,0.5"/>
	<path d="M299.8,41.5c0.2-1.2,1.3-2,2.5-1.8s2,1.3,1.8,2.5s-1.3,2-2.5,1.8C300.3,43.8,299.6,42.7,299.8,41.5"/>
	<path d="M318.6,52.7c0.2-1.2,1.3-2,2.5-1.8s2,1.3,1.8,2.5s-1.3,2-2.5,1.8C319.1,55,318.4,53.9,318.6,52.7"/>
	<path d="M312.4,41.5c0.2-1.2,1.3-2,2.5-1.8s2,1.3,1.8,2.5s-1.3,2-2.5,1.8C313,43.8,312.2,42.7,312.4,41.5"/>
	<line class="st7" x1="315.6" y1="43.8" x2="319.7" y2="51.2"/>
	<line class="st7" x1="304.1" y1="41.9" x2="312.4" y2="41.9"/>
	<path d="M318.6,29.3c0.2-1.2,1.3-2,2.5-1.8s2,1.3,1.8,2.5s-1.3,2-2.5,1.8C319.1,31.6,318.4,30.5,318.6,29.3"/>
	<line class="st7" x1="315.5" y1="40" x2="319.7" y2="31.6"/>
	<path d="M287.5,41.5c0.2-1.2,1.3-2,2.5-1.8s2,1.3,1.8,2.5s-1.3,2-2.5,1.8C288.1,43.8,287.3,42.7,287.5,41.5"/>
	<line class="st7" x1="299.7" y1="41.9" x2="291.8" y2="41.9"/>
	<text transform="matrix(1 0 0 1 292.8036 85.1632)" class="st5 st6">un</text>
	<text transform="matrix(1 0 0 1 300.6035 85.1632)" class="st5 st6">r</text>
	<text transform="matrix(1 0 0 1 302.8036 85.1632)" class="st5 st6">ooted</text>
	<path class="st7" d="M306.8,78.5L306.8,78.5c0-0.1,0.1-0.3,0.1-0.5s0.1-0.3,0.2-0.4s0.2-0.3,0.3-0.4c0.1-0.1,0.2-0.2,0.3-0.4
		c0.1-0.1,0.2-0.2,0.4-0.3c0.1-0.1,0.3-0.2,0.4-0.2c0.1-0.1,0.2-0.1,0.5-0.2c0.3,0-0.5,0,1.2,0s7.5-0.1,9-0.1c0.1,0,0.3-0.1,0.5-0.1
		s0.3-0.1,0.5-0.2s0.3-0.2,0.4-0.2c0.1-0.1,0.3-0.2,0.4-0.3c0.1-0.1,0.2-0.2,0.3-0.4c0.1-0.1,0.2-0.3,0.3-0.4
		c0.1-0.1,0.1-0.3,0.2-0.4s0.1-0.3,0.1-0.5"/>
	<path class="st7" d="M306.8,78.5L306.8,78.5c0-0.1-0.1-0.3-0.1-0.5s-0.1-0.3-0.2-0.4s-0.2-0.3-0.3-0.4c-0.1-0.1-0.2-0.2-0.3-0.4
		c-0.1-0.1-0.2-0.2-0.4-0.3c-0.1-0.1-0.3-0.2-0.4-0.2c-0.1-0.1-0.2-0.1-0.5-0.2c-0.3,0,0.5,0-1.2,0s-7.5-0.1-9-0.1
		c-0.1,0-0.3-0.1-0.5-0.1s-0.3-0.1-0.5-0.2c-0.1-0.1-0.3-0.2-0.4-0.2c-0.1-0.1-0.3-0.2-0.4-0.3c-0.1-0.1-0.2-0.2-0.3-0.4
		c-0.1-0.1-0.2-0.3-0.3-0.4c-0.1-0.1-0.1-0.3-0.2-0.4c0-0.2-0.1-0.3-0.1-0.5"/>
	<line class="st3" x1="153" y1="43.3" x2="153" y2="47.1"/>
	<path class="st4" d="M154.1,47.1l-1.1,2.8l-1-2.8 M153,49.9v-2.8"/>
</g>
<path class="st1" d="M260.6,125.2c1.2,0.2,2,1.3,1.8,2.5s-1.3,2-2.5,1.8s-2-1.3-1.8-2.5C258.3,125.8,259.4,125,260.6,125.2"/>
<path class="st2" d="M260.6,125.2c1.2,0.2,2,1.3,1.8,2.5s-1.3,2-2.5,1.8s-2-1.3-1.8-2.5C258.3,125.8,259.4,125,260.6,125.2"/>
<path d="M253.7,136.7c1.2,0.2,2,1.3,1.8,2.5s-1.3,2-2.5,1.8s-2-1.3-1.8-2.5S252.5,136.5,253.7,136.7"/>
<path d="M267.4,136.7c1.2,0.2,2,1.3,1.8,2.5s-1.3,2-2.5,1.8s-2-1.3-1.8-2.5S266.3,136.5,267.4,136.7"/>
<line class="st7" x1="259.1" y1="129.2" x2="254.4" y2="137"/>
<line class="st7" x1="261.3" y1="129.2" x2="265.9" y2="137"/>
<path d="M253.7,150c1.2,0.2,2,1.3,1.8,2.5s-1.3,2-2.5,1.8s-2-1.3-1.8-2.5S252.5,149.8,253.7,150"/>
<line class="st7" x1="253.3" y1="141" x2="253.3" y2="150"/>
<path d="M267.4,150c1.2,0.2,2,1.3,1.8,2.5s-1.3,2-2.5,1.8s-2-1.3-1.8-2.5S266.3,149.8,267.4,150"/>
<line class="st7" x1="267.1" y1="141" x2="267.1" y2="150"/>
<path class="st1" d="M299.4,125.2c1.2,0.2,2,1.3,1.8,2.5s-1.3,2-2.5,1.8s-2-1.3-1.8-2.5S298.2,125,299.4,125.2"/>
<path class="st2" d="M299.4,125.2c1.2,0.2,2,1.3,1.8,2.5s-1.3,2-2.5,1.8s-2-1.3-1.8-2.5S298.2,125,299.4,125.2"/>
<path d="M292.5,134c1.2,0.2,2,1.3,1.8,2.5s-1.3,2-2.5,1.8s-2-1.3-1.8-2.5S291.4,133.8,292.5,134"/>
<path d="M306.3,134c1.2,0.2,2,1.3,1.8,2.5s-1.3,2-2.5,1.8s-2-1.3-1.8-2.5S305.1,133.8,306.3,134"/>
<line class="st7" x1="297.7" y1="129.1" x2="293.5" y2="134.4"/>
<line class="st7" x1="300.4" y1="129.1" x2="304.6" y2="134.4"/>
<path d="M292.5,144.5c1.2,0.2,2,1.3,1.8,2.5s-1.3,2-2.5,1.8s-2-1.3-1.8-2.5S291.4,144.3,292.5,144.5"/>
<line class="st7" x1="292.4" y1="138.3" x2="292.4" y2="144.4"/>
<path d="M292.5,154.7c1.2,0.2,2,1.3,1.8,2.5s-1.3,2-2.5,1.8s-2-1.3-1.8-2.5S291.4,154.5,292.5,154.7"/>
<line class="st7" x1="292.4" y1="148.8" x2="292.4" y2="154.7"/>
<path class="st1" d="M335.9,125.2c1.2,0.2,2,1.3,1.8,2.5s-1.3,2-2.5,1.8s-2-1.3-1.8-2.5S334.8,125,335.9,125.2"/>
<path class="st2" d="M335.9,125.2c1.2,0.2,2,1.3,1.8,2.5s-1.3,2-2.5,1.8s-2-1.3-1.8-2.5S334.8,125,335.9,125.2"/>
<path d="M328.4,147.2c1.2,0.2,2,1.3,1.8,2.5s-1.3,2-2.5,1.8s-2-1.3-1.8-2.5S327.2,147,328.4,147.2"/>
<path d="M335.9,136.2c1.2,0.2,2,1.3,1.8,2.5s-1.3,2-2.5,1.8s-2-1.3-1.8-2.5S334.8,136,335.9,136.2"/>
<line class="st7" x1="334.3" y1="140.2" x2="329.2" y2="147.6"/>
<line class="st7" x1="335.6" y1="129.5" x2="335.6" y2="136.2"/>
<path d="M344,147.2c1.2,0.2,2,1.3,1.8,2.5s-1.3,2-2.5,1.8s-2-1.3-1.8-2.5S342.8,147,344,147.2"/>
<line class="st7" x1="336.8" y1="140.1" x2="342.3" y2="147.6"/>
<path d="M328.4,160c1.2,0.2,2,1.3,1.8,2.5s-1.3,2-2.5,1.8s-2-1.3-1.8-2.5C326,160.5,327.2,159.8,328.4,160"/>
<line class="st7" x1="328.4" y1="151.5" x2="328.4" y2="159.9"/>
<path class="st1" d="M368.4,125.2c1.2,0.2,2,1.3,1.8,2.5s-1.3,2-2.5,1.8s-2-1.3-1.8-2.5S367.2,125,368.4,125.2"/>
<path class="st2" d="M368.4,125.2c1.2,0.2,2,1.3,1.8,2.5s-1.3,2-2.5,1.8s-2-1.3-1.8-2.5S367.2,125,368.4,125.2"/>
<path d="M368.4,147.2c1.2,0.2,2,1.3,1.8,2.5s-1.3,2-2.5,1.8s-2-1.3-1.8-2.5S367.2,147,368.4,147.2"/>
<path d="M368.4,136.2c1.2,0.2,2,1.3,1.8,2.5s-1.3,2-2.5,1.8s-2-1.3-1.8-2.5S367.2,136,368.4,136.2"/>
<line class="st7" x1="368" y1="140.5" x2="368" y2="147.2"/>
<line class="st7" x1="368" y1="129.5" x2="368" y2="136.2"/>
<path d="M375.5,160c1.2,0.2,2,1.3,1.8,2.5s-1.3,2-2.5,1.8s-2-1.3-1.8-2.5C373.1,160.5,374.3,159.8,375.5,160"/>
<line class="st7" x1="369.1" y1="151.3" x2="374" y2="160.2"/>
<path d="M362.7,160c1.2,0.2,2,1.3,1.8,2.5s-1.3,2-2.5,1.8s-2-1.3-1.8-2.5C360.4,160.5,361.5,159.8,362.7,160"/>
<line class="st7" x1="367.1" y1="151.4" x2="363.2" y2="160.1"/>
<path class="st1" d="M395.5,125.2c1.2,0.2,2,1.3,1.8,2.5s-1.3,2-2.5,1.8s-2-1.3-1.8-2.5S394.4,125,395.5,125.2"/>
<path class="st2" d="M395.5,125.2c1.2,0.2,2,1.3,1.8,2.5s-1.3,2-2.5,1.8s-2-1.3-1.8-2.5S394.4,125,395.5,125.2"/>
<path d="M395.5,143.3c1.2,0.2,2,1.3,1.8,2.5s-1.3,2-2.5,1.8s-2-1.3-1.8-2.5C393.2,143.9,394.4,143.1,395.5,143.3"/>
<path d="M395.5,134.4c1.2,0.2,2,1.3,1.8,2.5s-1.3,2-2.5,1.8s-2-1.3-1.8-2.5S394.4,134.2,395.5,134.4"/>
<line class="st7" x1="395.3" y1="129.5" x2="395.3" y2="134.4"/>
<line class="st7" x1="395.3" y1="138.7" x2="395.3" y2="143.2"/>
<path d="M395.5,152.8c1.2,0.2,2,1.3,1.8,2.5s-1.3,2-2.5,1.8s-2-1.3-1.8-2.5C393.2,153.4,394.4,152.6,395.5,152.8"/>
<line class="st7" x1="395.3" y1="147.6" x2="395.3" y2="152.8"/>
<path d="M395.5,162.5c1.2,0.2,2,1.3,1.8,2.5s-1.3,2-2.5,1.8s-2-1.3-1.8-2.5S394.4,162.3,395.5,162.5"/>
<line class="st7" x1="395.3" y1="157.1" x2="395.3" y2="162.4"/>
<text transform="matrix(1 0 0 1 389.4919 204.5775)" class="st8 st9 st10">7.0</text>
<text transform="matrix(1 0 0 1 360.5082 204.5775)" class="st8 st9 st10">4.92</text>
<text transform="matrix(1 0 0 1 326.1699 204.5775)" class="st8 st9 st10">4.33</text>
<text transform="matrix(1 0 0 1 289.4097 204.5775)" class="st8 st9 st10">4.25</text>
<text transform="matrix(1 0 0 1 253.3043 204.5775)" class="st8 st9 st10">3.5</text>
<path class="st1" d="M101.2,124.5c1.2,0.2,2,1.3,1.8,2.5s-1.3,2-2.5,1.8s-2-1.3-1.8-2.5C98.9,125.1,100,124.3,101.2,124.5"/>
<path class="st2" d="M101.2,124.5c1.2,0.2,2,1.3,1.8,2.5s-1.3,2-2.5,1.8s-2-1.3-1.8-2.5C98.9,125.1,100,124.3,101.2,124.5"/>
<path d="M90.8,136.4c1.2,0.2,2,1.3,1.8,2.5s-1.3,2-2.5,1.8s-2-1.3-1.8-2.5C88.4,136.9,89.6,136.2,90.8,136.4"/>
<path d="M97.5,136.5c1.2,0.2,2,1.3,1.8,2.5s-1.3,2-2.5,1.8s-2-1.3-1.8-2.5S96.3,136.2,97.5,136.5"/>
<line class="st7" x1="99.4" y1="128.3" x2="91.8" y2="136.9"/>
<line class="st7" x1="100.2" y1="128.7" x2="97.7" y2="136.5"/>
<path d="M112.6,136.5c1.2,0.2,2,1.3,1.8,2.5s-1.3,2-2.5,1.8s-2-1.3-1.8-2.5C110.3,137,111.4,136.2,112.6,136.5"/>
<line class="st7" x1="102.3" y1="128.2" x2="110.7" y2="137"/>
<path d="M104.8,136.2c1.2,0.2,2,1.3,1.8,2.5s-1.3,2-2.5,1.8s-2-1.3-1.8-2.5C102.5,136.7,103.6,135.9,104.8,136.2"/>
<line class="st7" x1="101.5" y1="128.7" x2="103.8" y2="136.2"/>
<path class="st1" d="M143.1,124.5c1.2,0.2,2,1.3,1.8,2.5s-1.3,2-2.5,1.8s-2-1.3-1.8-2.5C140.8,125.1,141.9,124.3,143.1,124.5"/>
<path class="st2" d="M143.1,124.5c1.2,0.2,2,1.3,1.8,2.5s-1.3,2-2.5,1.8s-2-1.3-1.8-2.5C140.8,125.1,141.9,124.3,143.1,124.5"/>
<path d="M134.5,136c1.2,0.2,2,1.3,1.8,2.5s-1.3,2-2.5,1.8s-2-1.3-1.8-2.5S133.3,135.8,134.5,136"/>
<path d="M143.1,136.1c1.2,0.2,2,1.3,1.8,2.5s-1.3,2-2.5,1.8s-2-1.3-1.8-2.5C140.8,136.6,141.9,135.9,143.1,136.1"/>
<line class="st7" x1="141.4" y1="128.4" x2="135.4" y2="136.4"/>
<line class="st7" x1="142.7" y1="128.8" x2="142.7" y2="136"/>
<path d="M152.1,136.1c1.2,0.2,2,1.3,1.8,2.5s-1.3,2-2.5,1.8s-2-1.3-1.8-2.5S151,135.9,152.1,136.1"/>
<line class="st7" x1="144" y1="128.3" x2="150.4" y2="136.5"/>
<path d="M134.4,147.8c1.2,0.2,2,1.3,1.8,2.5s-1.3,2-2.5,1.8s-2-1.3-1.8-2.5C132.1,148.4,133.2,147.6,134.4,147.8"/>
<line class="st7" x1="134" y1="147.8" x2="134.1" y2="140.3"/>
<text transform="matrix(1 0 0 1 212.5764 204.5775)" class="st8 st9 st10">2.75</text>
<text transform="matrix(1 0 0 1 177.6889 204.5775)" class="st8 st9 st10">2.5</text>
<text transform="matrix(1 0 0 1 133.2487 204.5775)" class="st8 st9 st10">2.25</text>
<text transform="matrix(1 0 0 1 98.0642 204.5775)" class="st8 st9 st10">1.0</text>
<path class="st1" d="M184.9,124.5c1.2,0.2,2,1.3,1.8,2.5s-1.3,2-2.5,1.8s-2-1.3-1.8-2.5C182.6,125.1,183.8,124.3,184.9,124.5"/>
<path class="st2" d="M184.9,124.5c1.2,0.2,2,1.3,1.8,2.5s-1.3,2-2.5,1.8s-2-1.3-1.8-2.5C182.6,125.1,183.8,124.3,184.9,124.5"/>
<path d="M178.1,136c1.2,0.2,2,1.3,1.8,2.5s-1.3,2-2.5,1.8s-2-1.3-1.8-2.5S176.9,135.8,178.1,136"/>
<path d="M191.8,136c1.2,0.2,2,1.3,1.8,2.5s-1.3,2-2.5,1.8s-2-1.3-1.8-2.5S190.6,135.8,191.8,136"/>
<line class="st7" x1="183.5" y1="128.5" x2="178.8" y2="136.2"/>
<line class="st7" x1="185.7" y1="128.5" x2="190.3" y2="136.2"/>
<path d="M172.7,147.8c1.2,0.2,2,1.3,1.8,2.5s-1.3,2-2.5,1.8s-2-1.3-1.8-2.5S171.5,147.6,172.7,147.8"/>
<line class="st7" x1="176.8" y1="140.1" x2="173.2" y2="148"/>
<path d="M183.8,147.6c1.2,0.2,2,1.3,1.8,2.5s-1.3,2-2.5,1.8s-2-1.3-1.8-2.5C181.5,148.1,182.6,147.4,183.8,147.6"/>
<line class="st7" x1="178.7" y1="140.1" x2="182.5" y2="147.8"/>
<path class="st1" d="M222.6,124.5c1.2,0.2,2,1.3,1.8,2.5s-1.3,2-2.5,1.8s-2-1.3-1.8-2.5C220.3,125.1,221.4,124.3,222.6,124.5"/>
<path class="st2" d="M222.6,124.5c1.2,0.2,2,1.3,1.8,2.5s-1.3,2-2.5,1.8s-2-1.3-1.8-2.5C220.3,125.1,221.4,124.3,222.6,124.5"/>
<path d="M215,146.5c1.2,0.2,2,1.3,1.8,2.5s-1.3,2-2.5,1.8s-2-1.3-1.8-2.5S213.8,146.3,215,146.5"/>
<path d="M222.6,135.5c1.2,0.2,2,1.3,1.8,2.5s-1.3,2-2.5,1.8s-2-1.3-1.8-2.5S221.4,135.3,222.6,135.5"/>
<line class="st7" x1="221" y1="139.4" x2="215.9" y2="146.9"/>
<line class="st7" x1="222.2" y1="128.8" x2="222.2" y2="135.5"/>
<path d="M230.6,146.5c1.2,0.2,2,1.3,1.8,2.5s-1.3,2-2.5,1.8s-2-1.3-1.8-2.5S229.5,146.3,230.6,146.5"/>
<line class="st7" x1="223.5" y1="139.4" x2="229" y2="146.9"/>
<path d="M222.6,146.5c1.2,0.2,2,1.3,1.8,2.5s-1.3,2-2.5,1.8s-2-1.3-1.8-2.5S221.4,146.3,222.6,146.5"/>
<line class="st7" x1="222.2" y1="139.8" x2="222.2" y2="146.5"/>
<line class="st11" x1="18.9" y1="120.7" x2="407.9" y2="120.7"/>
<line class="st11" x1="18.9" y1="171.7" x2="407.9" y2="171.7"/>
<line class="st11" x1="18.9" y1="211.7" x2="407.9" y2="211.7"/>
<text transform="matrix(1 0 0 1 389.4921 185.5775)" class="st12 st9 st10">2.0</text>
<text transform="matrix(1 0 0 1 360.5082 185.5775)" class="st13 st9 st10">1.8</text>
<text transform="matrix(1 0 0 1 326.1699 185.5775)" class="st13 st9 st10">1.8</text>
<text transform="matrix(1 0 0 1 289.4097 185.5775)" class="st12 st9 st10">2.0</text>
<text transform="matrix(1 0 0 1 253.3043 185.5775)" class="st12 st9 st10">2.0</text>
<text transform="matrix(1 0 0 1 212.5764 185.5775)" class="st14 st9 st10">1.6</text>
<text transform="matrix(1 0 0 1 177.6889 185.5775)" class="st13 st9 st10">1.8</text>
<text transform="matrix(1 0 0 1 133.2487 185.5775)" class="st13 st9 st10">1.8</text>
<text id="XMLID_1_" transform="matrix(1 0 0 1 98.0642 185.5775)" class="st14 st9 st10">1.6</text>
<text transform="matrix(1 0 0 1 21.704 185.1204)" class="st15 st16">Wiener index</text>
<text transform="matrix(1.0128 0 0 1 20.7266 204.1201)" class="st15 st16">Cascade virality</text>
<text transform="matrix(1 0 0 1 21.7041 141.1204)" class="st15 st16">Cascades </text>
<text transform="matrix(1 0 0 1 21.7041 151.1204)" class="st15 st16">of size 5</text>
</svg>
