<?xml version="1.0" encoding="utf-8"?>
<!-- Generator: Adobe Illustrator 22.0.1, SVG Export Plug-In . SVG Version: 6.00 Build 0)  -->
<svg version="1.1" id="Layer_1" xmlns="http://www.w3.org/2000/svg" xmlns:xlink="http://www.w3.org/1999/xlink" x="0px" y="0px"
	 viewBox="0 0 389 197.2" style="enable-background:new 0 0 389 197.2;" xml:space="preserve">
<style type="text/css">
	.st0{opacity:0.1;fill:#E6E6E6;stroke:#000000;stroke-width:0.5;stroke-miterlimit:10;}
	.st1{opacity:0.7995;fill:#F6911E;}
	.st2{fill:none;stroke:#000000;stroke-width:0.6;stroke-linecap:round;stroke-linejoin:round;stroke-miterlimit:10;}
	.st3{fill:none;stroke:#000000;stroke-width:0.35;stroke-linecap:round;stroke-linejoin:round;stroke-miterlimit:10;}
	.st4{fill:none;stroke:#000000;stroke-width:0.35;stroke-miterlimit:10;}
	.st5{font-family:'HelveticaNeue';}
	.st6{font-size:7px;}
	.st7{fill:none;stroke:#000000;stroke-width:0.5;stroke-linecap:round;stroke-linejoin:round;stroke-miterlimit:10;}
	.st8{fill:#2A3384;}
	.st9{font-family:'TimesNewRomanPSMT';}
	.st10{font-size:11px;}
	.st11{fill:none;stroke:#000000;stroke-width:0.5;stroke-miterlimit:10;stroke-dasharray:4,1;}
	.st12{fill:#F7931E;}
	.st13{fill:#29ABE2;}
	.st14{fill:#C1272D;}
	.st15{font-family:'LucidaGrande';}
	.st16{font-size:9px;}
</style>
<path class="st0" d="M324.1,80.2H118.9c-1.6,0-2.9-1.3-2.9-2.9V3.1c0-1.6,1.3-2.9,2.9-2.9h205.2c1.6,0,2.9,1.3,2.9,2.9v74.2
	C327,79,325.7,80.2,324.1,80.2z"/>
<g>
	<path class="st1" d="M143.1,12.8c1.2,0.2,2,1.3,1.8,2.5c-0.2,1.2-1.3,2-2.5,1.8c-1.2-0.2-2-1.3-1.8-2.5S141.9,12.6,143.1,12.8"/>
	<path class="st2" d="M143.1,12.8c1.2,0.2,2,1.3,1.8,2.5c-0.2,1.2-1.3,2-2.5,1.8c-1.2-0.2-2-1.3-1.8-2.5
		C140.8,13.4,141.9,12.6,143.1,12.8"/>
	<path d="M134.5,24.3c1.2,0.2,2,1.3,1.8,2.5c-0.2,1.2-1.3,2-2.5,1.8c-1.2-0.2-2-1.3-1.8-2.5C132.2,24.8,133.4,24.1,134.5,24.3"/>
	<path d="M143.1,24.3c1.2,0.2,2,1.3,1.8,2.5c-0.2,1.2-1.3,2-2.5,1.8c-1.2-0.2-2-1.3-1.8-2.5C140.8,24.9,141.9,24.1,143.1,24.3"/>
	<line class="st3" x1="141.4" y1="16.7" x2="137.7" y2="21.6"/>
	<path class="st4" d="M138.6,22.2l-2.5,1.6l0.8-2.9 M136,23.9l1.7-2.2"/>
	<line class="st3" x1="142.5" y1="17.1" x2="142.5" y2="20.5"/>
	<path class="st4" d="M143.6,20.5l-1,2.8l-1-2.8 M142.5,23.3v-2.8"/>
	<path d="M152.2,24.3c1.2,0.2,2,1.3,1.8,2.5c-0.2,1.2-1.3,2-2.5,1.8c-1.2-0.2-2-1.3-1.8-2.5C149.9,24.9,151,24.1,152.2,24.3"/>
	<line class="st3" x1="144.1" y1="16.6" x2="148.1" y2="21.8"/>
	<path class="st4" d="M149,21.2l0.9,2.9l-2.6-1.6 M149.9,24l-1.7-2.2"/>
	<path d="M134.4,36.1c1.2,0.2,2,1.3,1.8,2.5c-0.2,1.2-1.3,2-2.5,1.8c-1.2-0.2-2-1.3-1.8-2.5S133.2,35.9,134.4,36.1"/>
	<path class="st1" d="M180.4,12.8c1.2,0.2,2,1.3,1.8,2.5c-0.2,1.2-1.3,2-2.5,1.8c-1.2-0.2-2-1.3-1.8-2.5
		C178.1,13.4,179.2,12.6,180.4,12.8"/>
	<path class="st2" d="M180.4,12.8c1.2,0.2,2,1.3,1.8,2.5c-0.2,1.2-1.3,2-2.5,1.8c-1.2-0.2-2-1.3-1.8-2.5
		C178.1,13.4,179.2,12.6,180.4,12.8"/>
	<path d="M173.5,24.3c1.2,0.2,2,1.3,1.8,2.5c-0.2,1.2-1.3,2-2.5,1.8c-1.2-0.2-2-1.3-1.8-2.5C171.2,24.8,172.3,24.1,173.5,24.3"/>
	<path d="M187.3,24.3c1.2,0.2,2,1.3,1.8,2.5c-0.2,1.2-1.3,2-2.5,1.8c-1.2-0.2-2-1.3-1.8-2.5C185,24.8,186.1,24.1,187.3,24.3"/>
	<line class="st3" x1="178.9" y1="16.8" x2="176.2" y2="21.3"/>
	<path class="st4" d="M177.1,21.8l-2.3,1.9l0.5-2.9 M174.8,23.7l1.4-2.4"/>
	<line class="st3" x1="181.1" y1="16.8" x2="183.8" y2="21.3"/>
	<path class="st4" d="M184.7,20.7l0.5,2.9l-2.3-1.9 M185.3,23.7l-1.4-2.4"/>
	<path d="M168.1,36.1c1.2,0.2,2,1.3,1.8,2.5s-1.3,2-2.5,1.8c-1.2-0.2-2-1.3-1.8-2.5C165.8,36.7,167,35.9,168.1,36.1"/>
	<line class="st3" x1="172.3" y1="28.4" x2="170.2" y2="32.8"/>
	<path class="st4" d="M171.2,33.3l-2.1,2.1l0.2-3 M169.1,35.4l1.2-2.5"/>
	<path d="M179.3,35.9c1.2,0.2,2,1.3,1.8,2.5c-0.2,1.2-1.3,2-2.5,1.8c-1.2-0.2-2-1.3-1.8-2.5C177,36.4,178.1,35.6,179.3,35.9"/>
	<line class="st3" x1="174.1" y1="28.3" x2="176.2" y2="32.6"/>
	<path class="st4" d="M177.2,32.2l0.3,3l-2.2-2 M177.5,35.2l-1.2-2.5"/>
	<path class="st1" d="M211.1,12.7c1.2,0.2,2,1.3,1.8,2.5c-0.2,1.2-1.3,2-2.5,1.8c-1.2-0.2-2-1.3-1.8-2.5
		C208.8,13.3,209.9,12.5,211.1,12.7"/>
	<path class="st2" d="M211.1,12.7c1.2,0.2,2,1.3,1.8,2.5c-0.2,1.2-1.3,2-2.5,1.8c-1.2-0.2-2-1.3-1.8-2.5
		C208.8,13.3,209.9,12.5,211.1,12.7"/>
	<path d="M203.9,34.7c1.2,0.2,2,1.3,1.8,2.5c-0.2,1.2-1.3,2-2.5,1.8c-1.2-0.2-2-1.3-1.8-2.5C201.6,35.3,202.7,34.5,203.9,34.7"/>
	<path d="M211.1,23.7c1.2,0.2,2,1.3,1.8,2.5c-0.2,1.2-1.3,2-2.5,1.8c-1.2-0.2-2-1.3-1.8-2.5C208.8,24.3,209.9,23.5,211.1,23.7"/>
	<line class="st3" x1="209.4" y1="27.6" x2="206.5" y2="31.9"/>
	<path class="st4" d="M207.3,32.5l-2.5,1.7l0.7-2.9 M204.9,34.2l1.6-2.3"/>
	<line class="st3" x1="210.5" y1="17" x2="210.5" y2="19.9"/>
	<path class="st4" d="M211.6,19.9l-1,2.8l-1-2.8 M210.5,22.7v-2.8"/>
	<path d="M219.1,34.7c1.2,0.2,2,1.3,1.8,2.5c-0.2,1.2-1.3,2-2.5,1.8c-1.2-0.2-2-1.3-1.8-2.5C216.8,35.3,217.9,34.5,219.1,34.7"/>
	<line class="st3" x1="212" y1="27.6" x2="215.2" y2="32"/>
	<path class="st4" d="M216.1,31.4l0.8,2.9l-2.5-1.6 M216.9,34.3l-1.7-2.3"/>
	<path d="M203.9,47.4c1.2,0.2,2,1.3,1.8,2.5c-0.2,1.2-1.3,2-2.5,1.8c-1.2-0.2-2-1.3-1.8-2.5C201.6,48,202.7,47.2,203.9,47.4"/>
	<line class="st3" x1="203.5" y1="39" x2="203.5" y2="43.6"/>
	<path class="st4" d="M204.6,43.6l-1,2.8l-1-2.8 M203.5,46.4v-2.8"/>
	<path class="st1" d="M244.1,12.7c1.2,0.2,2,1.3,1.8,2.5c-0.2,1.2-1.3,2-2.5,1.8c-1.2-0.2-2-1.3-1.8-2.5
		C241.8,13.3,242.9,12.5,244.1,12.7"/>
	<path class="st2" d="M244.1,12.7c1.2,0.2,2,1.3,1.8,2.5c-0.2,1.2-1.3,2-2.5,1.8c-1.2-0.2-2-1.3-1.8-2.5
		C241.8,13.3,242.9,12.5,244.1,12.7"/>
	<path d="M244.2,34.7c1.2,0.2,2,1.3,1.8,2.5c-0.2,1.2-1.3,2-2.5,1.8c-1.2-0.2-2-1.3-1.8-2.5C241.8,35.3,243,34.5,244.2,34.7"/>
	<path d="M244.1,23.7c1.2,0.2,2,1.3,1.8,2.5c-0.2,1.2-1.3,2-2.5,1.8c-1.2-0.2-2-1.3-1.8-2.5C241.8,24.3,242.9,23.5,244.1,23.7"/>
	<line class="st3" x1="243.7" y1="28" x2="243.7" y2="30.9"/>
	<path class="st4" d="M244.8,30.8l-1,2.8l-1.1-2.8 M243.8,33.7l0-2.8"/>
	<line class="st3" x1="243.5" y1="17" x2="243.5" y2="19.9"/>
	<path class="st4" d="M244.6,19.9l-1,2.8l-1-2.8 M243.5,22.7v-2.8"/>
	<path d="M251.2,47.4c1.2,0.2,2,1.3,1.8,2.5c-0.2,1.2-1.3,2-2.5,1.8c-1.2-0.2-2-1.3-1.8-2.5S250,47.2,251.2,47.4"/>
	<line class="st3" x1="244.8" y1="38.7" x2="247.9" y2="44.3"/>
	<path class="st4" d="M248.8,43.8l0.4,3l-2.3-1.9 M249.3,46.8l-1.4-2.4"/>
	<path d="M238.4,47.4c1.2,0.2,2,1.3,1.8,2.5c-0.2,1.2-1.3,2-2.5,1.8c-1.2-0.2-2-1.3-1.8-2.5S237.2,47.2,238.4,47.4"/>
	<line class="st3" x1="242.9" y1="38.8" x2="240.5" y2="44.1"/>
	<path class="st4" d="M241.4,44.5l-2.1,2.1l0.2-3 M239.3,46.7l1.2-2.6"/>
	<text transform="matrix(1 0 0 1 183.006 70.3983)"><tspan x="0" y="0" class="st5 st6">r</tspan><tspan x="2.2" y="0" class="st5 st6">ooted</tspan></text>
	<path class="st7" d="M248,58.3L248,58.3c-0.1,0.1-0.2,0.4-0.4,0.6c-0.2,0.2-0.4,0.4-0.7,0.5s-0.6,0.3-0.9,0.5
		c-0.3,0.2-0.7,0.3-1.2,0.4c-0.4,0.1-0.9,0.3-1.4,0.4c-0.5,0.1-1,0.2-1.6,0.3c-0.5,0.1-0.7,0.2-1.7,0.2c-1,0,1.8,0-4.5,0
		c-6.3,0-27.6,0.1-33.1,0.1c-0.3,0-1.3,0.1-1.8,0.1c-0.6,0.1-1.2,0.1-1.7,0.2s-1.1,0.2-1.6,0.3c-0.5,0.1-1,0.2-1.4,0.4
		c-0.4,0.1-0.8,0.3-1.2,0.4c-0.3,0.2-0.7,0.3-0.9,0.5c-0.3,0.2-0.5,0.4-0.7,0.5c-0.2,0.2-0.2,0.4-0.3,0.5"/>
	<path class="st7" d="M138,58.3L138,58.3c0.1,0.1,0.2,0.4,0.4,0.6c0.2,0.2,0.4,0.4,0.7,0.5c0.3,0.2,0.6,0.3,0.9,0.5
		c0.3,0.2,0.7,0.3,1.2,0.4c0.4,0.1,0.9,0.3,1.4,0.4c0.5,0.1,1,0.2,1.6,0.3s0.7,0.2,1.7,0.2c1,0-1.8,0,4.5,0c6.3,0,27.6,0.1,33.1,0.1
		c0.3,0,1.3,0.1,1.8,0.1c0.6,0.1,1.2,0.1,1.7,0.2c0.5,0.1,1.1,0.2,1.6,0.3c0.5,0.1,1,0.2,1.4,0.4c0.4,0.1,0.8,0.3,1.2,0.4
		c0.3,0.2,0.7,0.3,0.9,0.5c0.3,0.2,0.5,0.4,0.7,0.5c0.2,0.2,0.2,0.4,0.3,0.5"/>
	<path d="M280.8,26.7c0.2-1.2,1.3-2,2.5-1.8c1.2,0.2,2,1.3,1.8,2.5s-1.3,2-2.5,1.8C281.4,29.1,280.6,27.9,280.8,26.7"/>
	<path d="M299.7,38c0.2-1.2,1.3-2,2.5-1.8c1.2,0.2,2,1.3,1.8,2.5c-0.2,1.2-1.3,2-2.5,1.8C300.2,40.3,299.4,39.1,299.7,38"/>
	<path d="M293.5,26.7c0.2-1.2,1.3-2,2.5-1.8c1.2,0.2,2,1.3,1.8,2.5s-1.3,2-2.5,1.8C294.1,29.1,293.3,27.9,293.5,26.7"/>
	<line class="st7" x1="296.7" y1="29" x2="300.7" y2="36.4"/>
	<line class="st7" x1="285.2" y1="27.1" x2="293.4" y2="27.1"/>
	<path d="M299.7,14.5c0.2-1.2,1.3-2,2.5-1.8c1.2,0.2,2,1.3,1.8,2.5c-0.2,1.2-1.3,2-2.5,1.8C300.2,16.9,299.4,15.7,299.7,14.5"/>
	<line class="st7" x1="296.6" y1="25.2" x2="300.8" y2="16.9"/>
	<path d="M268.6,26.7c0.2-1.2,1.3-2,2.5-1.8c1.2,0.2,2,1.3,1.8,2.5s-1.3,2-2.5,1.8C269.2,29.1,268.4,27.9,268.6,26.7"/>
	<line class="st7" x1="280.8" y1="27.1" x2="272.9" y2="27.1"/>
	<text transform="matrix(1 0 0 1 273.8903 70.3983)"><tspan x="0" y="0" class="st5 st6">un</tspan><tspan x="7.8" y="0" class="st5 st6">r</tspan><tspan x="10" y="0" class="st5 st6">ooted</tspan></text>
	<path class="st7" d="M287.9,63.8L287.9,63.8c0-0.1,0.1-0.3,0.1-0.5c0-0.2,0.1-0.3,0.2-0.4c0.1-0.1,0.2-0.3,0.3-0.4
		c0.1-0.1,0.2-0.2,0.3-0.4c0.1-0.1,0.2-0.2,0.4-0.3c0.1-0.1,0.3-0.2,0.4-0.2c0.1-0.1,0.2-0.1,0.5-0.2c0.3,0-0.5,0,1.2,0
		s7.5-0.1,9-0.1c0.1,0,0.3-0.1,0.5-0.1c0.2,0,0.3-0.1,0.5-0.2s0.3-0.2,0.4-0.2c0.1-0.1,0.3-0.2,0.4-0.3c0.1-0.1,0.2-0.2,0.3-0.4
		c0.1-0.1,0.2-0.3,0.3-0.4c0.1-0.1,0.1-0.3,0.2-0.4s0.1-0.3,0.1-0.5"/>
	<path class="st7" d="M287.9,63.8L287.9,63.8c0-0.1-0.1-0.3-0.1-0.5c0-0.2-0.1-0.3-0.2-0.4c-0.1-0.1-0.2-0.3-0.3-0.4
		c-0.1-0.1-0.2-0.2-0.3-0.4c-0.1-0.1-0.2-0.2-0.4-0.3c-0.1-0.1-0.3-0.2-0.4-0.2c-0.1-0.1-0.2-0.1-0.5-0.2c-0.3,0,0.5,0-1.2,0
		s-7.5-0.1-9-0.1c-0.1,0-0.3-0.1-0.5-0.1c-0.2,0-0.3-0.1-0.5-0.2c-0.1-0.1-0.3-0.2-0.4-0.2c-0.1-0.1-0.3-0.2-0.4-0.3
		c-0.1-0.1-0.2-0.2-0.3-0.4c-0.1-0.1-0.2-0.3-0.3-0.4c-0.1-0.1-0.1-0.3-0.2-0.4c0-0.2-0.1-0.3-0.1-0.5"/>
	<line class="st3" x1="134.1" y1="28.6" x2="134.1" y2="32.3"/>
	<path class="st4" d="M135.1,32.3l-1.1,2.8l-1-2.8 M134.1,35.1l0-2.8"/>
</g>
<path class="st1" d="M241.7,110.5c1.2,0.2,2,1.3,1.8,2.5c-0.2,1.2-1.3,2-2.5,1.8c-1.2-0.2-2-1.3-1.8-2.5S240.5,110.3,241.7,110.5"/>
<path class="st2" d="M241.7,110.5c1.2,0.2,2,1.3,1.8,2.5c-0.2,1.2-1.3,2-2.5,1.8c-1.2-0.2-2-1.3-1.8-2.5
	C239.3,111.1,240.5,110.3,241.7,110.5"/>
<path d="M234.8,121.9c1.2,0.2,2,1.3,1.8,2.5c-0.2,1.2-1.3,2-2.5,1.8s-2-1.3-1.8-2.5S233.6,121.7,234.8,121.9"/>
<path d="M248.5,121.9c1.2,0.2,2,1.3,1.8,2.5c-0.2,1.2-1.3,2-2.5,1.8c-1.2-0.2-2-1.3-1.8-2.5C246.2,122.5,247.3,121.7,248.5,121.9"/>
<line class="st7" x1="240.2" y1="114.5" x2="235.5" y2="122.2"/>
<line class="st7" x1="242.4" y1="114.5" x2="247" y2="122.2"/>
<path d="M234.8,135.3c1.2,0.2,2,1.3,1.8,2.5c-0.2,1.2-1.3,2-2.5,1.8c-1.2-0.2-2-1.3-1.8-2.5C232.5,135.8,233.6,135,234.8,135.3"/>
<line class="st7" x1="234.4" y1="126.3" x2="234.4" y2="135.2"/>
<path d="M248.5,135.3c1.2,0.2,2,1.3,1.8,2.5c-0.2,1.2-1.3,2-2.5,1.8c-1.2-0.2-2-1.3-1.8-2.5C246.2,135.8,247.3,135,248.5,135.3"/>
<line class="st7" x1="248.1" y1="126.3" x2="248.1" y2="135.2"/>
<path class="st1" d="M280.5,110.5c1.2,0.2,2,1.3,1.8,2.5c-0.2,1.2-1.3,2-2.5,1.8c-1.2-0.2-2-1.3-1.8-2.5S279.3,110.3,280.5,110.5"/>
<path class="st2" d="M280.5,110.5c1.2,0.2,2,1.3,1.8,2.5c-0.2,1.2-1.3,2-2.5,1.8c-1.2-0.2-2-1.3-1.8-2.5
	C278.2,111.1,279.3,110.3,280.5,110.5"/>
<path d="M273.6,119.2c1.2,0.2,2,1.3,1.8,2.5s-1.3,2-2.5,1.8c-1.2-0.2-2-1.3-1.8-2.5S272.5,119,273.6,119.2"/>
<path d="M287.4,119.2c1.2,0.2,2,1.3,1.8,2.5s-1.3,2-2.5,1.8c-1.2-0.2-2-1.3-1.8-2.5C285.1,119.8,286.2,119,287.4,119.2"/>
<line class="st7" x1="278.8" y1="114.3" x2="274.6" y2="119.7"/>
<line class="st7" x1="281.5" y1="114.3" x2="285.7" y2="119.7"/>
<path d="M273.6,129.7c1.2,0.2,2,1.3,1.8,2.5c-0.2,1.2-1.3,2-2.5,1.8c-1.2-0.2-2-1.3-1.8-2.5S272.5,129.5,273.6,129.7"/>
<line class="st7" x1="273.4" y1="123.5" x2="273.4" y2="129.7"/>
<path d="M273.6,140c1.2,0.2,2,1.3,1.8,2.5c-0.2,1.2-1.3,2-2.5,1.8c-1.2-0.2-2-1.3-1.8-2.5S272.5,139.8,273.6,140"/>
<line class="st7" x1="273.4" y1="134" x2="273.4" y2="139.9"/>
<path class="st1" d="M317,110.5c1.2,0.2,2,1.3,1.8,2.5s-1.3,2-2.5,1.8c-1.2-0.2-2-1.3-1.8-2.5S315.8,110.3,317,110.5"/>
<path class="st2" d="M317,110.5c1.2,0.2,2,1.3,1.8,2.5c-0.2,1.2-1.3,2-2.5,1.8s-2-1.3-1.8-2.5C314.7,111.1,315.8,110.3,317,110.5"/>
<path d="M309.4,132.5c1.2,0.2,2,1.3,1.8,2.5c-0.2,1.2-1.3,2-2.5,1.8c-1.2-0.2-2-1.3-1.8-2.5S308.3,132.3,309.4,132.5"/>
<path d="M317,121.5c1.2,0.2,2,1.3,1.8,2.5s-1.3,2-2.5,1.8c-1.2-0.2-2-1.3-1.8-2.5S315.8,121.3,317,121.5"/>
<line class="st7" x1="315.4" y1="125.4" x2="310.3" y2="132.8"/>
<line class="st7" x1="316.6" y1="114.8" x2="316.6" y2="121.4"/>
<path d="M325.1,132.5c1.2,0.2,2,1.3,1.8,2.5s-1.3,2-2.5,1.8c-1.2-0.2-2-1.3-1.8-2.5S323.9,132.3,325.1,132.5"/>
<line class="st7" x1="317.9" y1="125.4" x2="323.4" y2="132.9"/>
<path d="M309.4,145.2c1.2,0.2,2,1.3,1.8,2.5c-0.2,1.2-1.3,2-2.5,1.8c-1.2-0.2-2-1.3-1.8-2.5C307.1,145.8,308.3,145,309.4,145.2"/>
<line class="st7" x1="309.4" y1="136.8" x2="309.4" y2="145.2"/>
<path class="st1" d="M349.4,110.5c1.2,0.2,2,1.3,1.8,2.5s-1.3,2-2.5,1.8c-1.2-0.2-2-1.3-1.8-2.5S348.3,110.3,349.4,110.5"/>
<path class="st2" d="M349.4,110.5c1.2,0.2,2,1.3,1.8,2.5c-0.2,1.2-1.3,2-2.5,1.8c-1.2-0.2-2-1.3-1.8-2.5
	C347.1,111.1,348.3,110.3,349.4,110.5"/>
<path d="M349.5,132.5c1.2,0.2,2,1.3,1.8,2.5s-1.3,2-2.5,1.8c-1.2-0.2-2-1.3-1.8-2.5C347.2,133.1,348.3,132.3,349.5,132.5"/>
<path d="M349.4,121.5c1.2,0.2,2,1.3,1.8,2.5s-1.3,2-2.5,1.8c-1.2-0.2-2-1.3-1.8-2.5S348.3,121.3,349.4,121.5"/>
<line class="st7" x1="349.1" y1="125.8" x2="349.1" y2="132.4"/>
<line class="st7" x1="349.1" y1="114.8" x2="349.1" y2="121.4"/>
<path d="M356.5,145.2c1.2,0.2,2,1.3,1.8,2.5c-0.2,1.2-1.3,2-2.5,1.8c-1.2-0.2-2-1.3-1.8-2.5C354.2,145.8,355.4,145,356.5,145.2"/>
<line class="st7" x1="350.2" y1="136.5" x2="355.1" y2="145.4"/>
<path d="M343.8,145.2c1.2,0.2,2,1.3,1.8,2.5c-0.2,1.2-1.3,2-2.5,1.8c-1.2-0.2-2-1.3-1.8-2.5C341.4,145.8,342.6,145,343.8,145.2"/>
<line class="st7" x1="348.2" y1="136.6" x2="344.3" y2="145.4"/>
<path class="st1" d="M376.6,110.5c1.2,0.2,2,1.3,1.8,2.5s-1.3,2-2.5,1.8c-1.2-0.2-2-1.3-1.8-2.5
	C374.3,111.1,375.4,110.3,376.6,110.5"/>
<path class="st2" d="M376.6,110.5c1.2,0.2,2,1.3,1.8,2.5c-0.2,1.2-1.3,2-2.5,1.8c-1.2-0.2-2-1.3-1.8-2.5
	C374.3,111.1,375.4,110.3,376.6,110.5"/>
<path d="M376.6,128.5c1.2,0.2,2,1.3,1.8,2.5c-0.2,1.2-1.3,2-2.5,1.8c-1.2-0.2-2-1.3-1.8-2.5C374.3,129.1,375.4,128.3,376.6,128.5"/>
<path d="M376.6,119.6c1.2,0.2,2,1.3,1.8,2.5c-0.2,1.2-1.3,2-2.5,1.8c-1.2-0.2-2-1.3-1.8-2.5C374.3,120.2,375.4,119.4,376.6,119.6"/>
<line class="st7" x1="376.4" y1="114.8" x2="376.4" y2="119.6"/>
<line class="st7" x1="376.4" y1="123.9" x2="376.4" y2="128.5"/>
<path d="M376.6,138.1c1.2,0.2,2,1.3,1.8,2.5s-1.3,2-2.5,1.8c-1.2-0.2-2-1.3-1.8-2.5C374.3,138.7,375.4,137.9,376.6,138.1"/>
<line class="st7" x1="376.4" y1="132.8" x2="376.4" y2="138"/>
<path d="M376.6,147.7c1.2,0.2,2,1.3,1.8,2.5s-1.3,2-2.5,1.8c-1.2-0.2-2-1.3-1.8-2.5S375.4,147.5,376.6,147.7"/>
<line class="st7" x1="376.4" y1="142.4" x2="376.3" y2="147.7"/>
<text transform="matrix(1 0 0 1 370.5785 189.8127)" class="st8 st9 st10">7.0</text>
<text transform="matrix(1 0 0 1 341.5948 189.8127)" class="st8 st9 st10">4.92</text>
<text transform="matrix(1 0 0 1 307.2565 189.8127)" class="st8 st9 st10">4.33</text>
<text transform="matrix(1 0 0 1 270.4963 189.8126)" class="st8 st9 st10">4.25</text>
<text transform="matrix(1 0 0 1 234.391 189.8126)" class="st8 st9 st10">3.5</text>
<path class="st1" d="M82.3,109.7c1.2,0.2,2,1.3,1.8,2.5s-1.3,2-2.5,1.8c-1.2-0.2-2-1.3-1.8-2.5C80,110.3,81.1,109.5,82.3,109.7"/>
<path class="st2" d="M82.3,109.7c1.2,0.2,2,1.3,1.8,2.5c-0.2,1.2-1.3,2-2.5,1.8c-1.2-0.2-2-1.3-1.8-2.5
	C80,110.3,81.1,109.5,82.3,109.7"/>
<path d="M71.8,121.6c1.2,0.2,2,1.3,1.8,2.5c-0.2,1.2-1.3,2-2.5,1.8c-1.2-0.2-2-1.3-1.8-2.5C69.5,122.2,70.7,121.4,71.8,121.6"/>
<path d="M78.6,121.7c1.2,0.2,2,1.3,1.8,2.5s-1.3,2-2.5,1.8s-2-1.3-1.8-2.5S77.4,121.5,78.6,121.7"/>
<line class="st7" x1="80.5" y1="113.5" x2="72.9" y2="122.1"/>
<line class="st7" x1="81.3" y1="113.9" x2="78.8" y2="121.8"/>
<path d="M93.7,121.7c1.2,0.2,2,1.3,1.8,2.5s-1.3,2-2.5,1.8s-2-1.3-1.8-2.5S92.5,121.5,93.7,121.7"/>
<line class="st7" x1="83.4" y1="113.4" x2="91.8" y2="122.3"/>
<path d="M85.9,121.4c1.2,0.2,2,1.3,1.8,2.5c-0.2,1.2-1.3,2-2.5,1.8c-1.2-0.2-2-1.3-1.8-2.5C83.6,122,84.7,121.2,85.9,121.4"/>
<line class="st7" x1="82.5" y1="113.9" x2="84.9" y2="121.5"/>
<path class="st1" d="M124.1,109.7c1.2,0.2,2,1.3,1.8,2.5c-0.2,1.2-1.3,2-2.5,1.8c-1.2-0.2-2-1.3-1.8-2.5
	C121.8,110.3,123,109.5,124.1,109.7"/>
<path class="st2" d="M124.1,109.7c1.2,0.2,2,1.3,1.8,2.5c-0.2,1.2-1.3,2-2.5,1.8c-1.2-0.2-2-1.3-1.8-2.5
	C121.8,110.3,123,109.5,124.1,109.7"/>
<path d="M115.6,121.2c1.2,0.2,2,1.3,1.8,2.5c-0.2,1.2-1.3,2-2.5,1.8c-1.2-0.2-2-1.3-1.8-2.5C113.3,121.8,114.4,121,115.6,121.2"/>
<path d="M124.1,121.3c1.2,0.2,2,1.3,1.8,2.5c-0.2,1.2-1.3,2-2.5,1.8c-1.2-0.2-2-1.3-1.8-2.5C121.8,121.9,123,121.1,124.1,121.3"/>
<line class="st7" x1="122.5" y1="113.6" x2="116.5" y2="121.6"/>
<line class="st7" x1="123.8" y1="114" x2="123.8" y2="121.3"/>
<path d="M133.2,121.3c1.2,0.2,2,1.3,1.8,2.5c-0.2,1.2-1.3,2-2.5,1.8c-1.2-0.2-2-1.3-1.8-2.5S132.1,121.1,133.2,121.3"/>
<line class="st7" x1="125.1" y1="113.6" x2="131.5" y2="121.7"/>
<path d="M115.4,133.1c1.2,0.2,2,1.3,1.8,2.5s-1.3,2-2.5,1.8s-2-1.3-1.8-2.5C113.1,133.6,114.3,132.9,115.4,133.1"/>
<line class="st7" x1="115.1" y1="133" x2="115.2" y2="125.5"/>
<text transform="matrix(1 0 0 1 193.6631 189.8126)" class="st8 st9 st10">2.75</text>
<text transform="matrix(1 0 0 1 158.7755 189.8126)" class="st8 st9 st10">2.5</text>
<text transform="matrix(1 0 0 1 114.3354 189.8126)" class="st8 st9 st10">2.25</text>
<text transform="matrix(1 0 0 1 79.1508 189.8127)" class="st8 st9 st10">1.0</text>
<path class="st1" d="M166,109.7c1.2,0.2,2,1.3,1.8,2.5s-1.3,2-2.5,1.8c-1.2-0.2-2-1.3-1.8-2.5C163.7,110.3,164.9,109.5,166,109.7"/>
<path class="st2" d="M166,109.7c1.2,0.2,2,1.3,1.8,2.5c-0.2,1.2-1.3,2-2.5,1.8c-1.2-0.2-2-1.3-1.8-2.5
	C163.7,110.3,164.9,109.5,166,109.7"/>
<path d="M159.2,121.2c1.2,0.2,2,1.3,1.8,2.5c-0.2,1.2-1.3,2-2.5,1.8c-1.2-0.2-2-1.3-1.8-2.5S158,121,159.2,121.2"/>
<path d="M172.9,121.2c1.2,0.2,2,1.3,1.8,2.5s-1.3,2-2.5,1.8c-1.2-0.2-2-1.3-1.8-2.5S171.7,121,172.9,121.2"/>
<line class="st7" x1="164.5" y1="113.7" x2="159.9" y2="121.5"/>
<line class="st7" x1="166.8" y1="113.7" x2="171.4" y2="121.5"/>
<path d="M153.8,133.1c1.2,0.2,2,1.3,1.8,2.5c-0.2,1.2-1.3,2-2.5,1.8c-1.2-0.2-2-1.3-1.8-2.5C151.5,133.6,152.6,132.9,153.8,133.1"/>
<line class="st7" x1="157.9" y1="125.3" x2="154.3" y2="133.2"/>
<path d="M164.9,132.8c1.2,0.2,2,1.3,1.8,2.5c-0.2,1.2-1.3,2-2.5,1.8c-1.2-0.2-2-1.3-1.8-2.5C162.6,133.4,163.7,132.6,164.9,132.8"/>
<line class="st7" x1="159.7" y1="125.3" x2="163.6" y2="133"/>
<path class="st1" d="M203.7,109.7c1.2,0.2,2,1.3,1.8,2.5s-1.3,2-2.5,1.8c-1.2-0.2-2-1.3-1.8-2.5
	C201.4,110.3,202.5,109.5,203.7,109.7"/>
<path class="st2" d="M203.7,109.7c1.2,0.2,2,1.3,1.8,2.5c-0.2,1.2-1.3,2-2.5,1.8c-1.2-0.2-2-1.3-1.8-2.5
	C201.4,110.3,202.5,109.5,203.7,109.7"/>
<path d="M196.1,131.7c1.2,0.2,2,1.3,1.8,2.5c-0.2,1.2-1.3,2-2.5,1.8c-1.2-0.2-2-1.3-1.8-2.5S194.9,131.5,196.1,131.7"/>
<path d="M203.7,120.7c1.2,0.2,2,1.3,1.8,2.5c-0.2,1.2-1.3,2-2.5,1.8c-1.2-0.2-2-1.3-1.8-2.5C201.4,121.3,202.5,120.5,203.7,120.7"/>
<line class="st7" x1="202.1" y1="124.7" x2="196.9" y2="132.1"/>
<line class="st7" x1="203.3" y1="114" x2="203.3" y2="120.7"/>
<path d="M211.7,131.7c1.2,0.2,2,1.3,1.8,2.5c-0.2,1.2-1.3,2-2.5,1.8c-1.2-0.2-2-1.3-1.8-2.5S210.6,131.5,211.7,131.7"/>
<line class="st7" x1="204.6" y1="124.6" x2="210.1" y2="132.1"/>
<path d="M203.7,131.7c1.2,0.2,2,1.3,1.8,2.5c-0.2,1.2-1.3,2-2.5,1.8c-1.2-0.2-2-1.3-1.8-2.5S202.5,131.5,203.7,131.7"/>
<line class="st7" x1="203.3" y1="125" x2="203.3" y2="131.7"/>
<line class="st11" x1="0" y1="106" x2="389" y2="106"/>
<line class="st11" x1="0" y1="157" x2="389" y2="157"/>
<line class="st11" x1="0" y1="197" x2="389" y2="197"/>
<text transform="matrix(1 0 0 1 370.5787 170.8127)" class="st12 st9 st10">2.0</text>
<text transform="matrix(1 0 0 1 341.5948 170.8127)" class="st13 st9 st10">1.8</text>
<text transform="matrix(1 0 0 1 307.2565 170.8127)" class="st13 st9 st10">1.8</text>
<text transform="matrix(1 0 0 1 270.4963 170.8126)" class="st12 st9 st10">2.0</text>
<text transform="matrix(1 0 0 1 234.391 170.8126)" class="st12 st9 st10">2.0</text>
<text transform="matrix(1 0 0 1 193.6631 170.8126)" class="st14 st9 st10">1.6</text>
<text transform="matrix(1 0 0 1 158.7755 170.8126)" class="st13 st9 st10">1.8</text>
<text transform="matrix(1 0 0 1 114.3354 170.8126)" class="st13 st9 st10">1.8</text>
<text id="XMLID_1_" transform="matrix(1 0 0 1 79.1508 170.8127)" class="st14 st9 st10">1.6</text>
<text transform="matrix(1 0 0 1 2.7907 170.3555)" class="st15 st16">Wiener index</text>
<text transform="matrix(1.0128 0 0 1 1.8136 189.3555)" class="st15 st16">Cascade virality</text>
<text transform="matrix(1 0 0 1 2.7907 126.3555)"><tspan x="0" y="0" class="st15 st16">Cascades </tspan><tspan x="0" y="10" class="st15 st16">of size 5</tspan></text>
</svg>
